<svg xmlns="http://www.w3.org/2000/svg" xmlns:xlink="http://www.w3.org/1999/xlink" xmlns:lucid="lucid" width="7834.6" height="2033.69"><g transform="translate(2810.6913531529262 400.5)" lucid:page-tab-id=".Q4MUjXso07N"><path d="M-360-364a16 16 0 0 1 16-16h226.4a16 16 0 0 1 16 16v229.6a16 16 0 0 1-16 16H-344a16 16 0 0 1-16-16z" stroke="#4c535d" fill="#fff"/><path d="M-313.78-319.78c0 1.23-1 2.22-2.22 2.22-1.23 0-2.22-1-2.22-2.22 0-1.23 1-2.22 2.22-2.22 1.23 0 2.22 1 2.22 2.22z" stroke="#333" fill="#fff"/><path d="M-316-317.56v6.67c0 .62.13 1.14.43 1.68l4 7.22m-4.43-8l-4.44 8m0-13.33h8.88" stroke="#333" fill="none"/><path d="M-320.44-321.1c0-.5.4-.9.88-.9h7.12c.5 0 .88.4.88.9v18.2c0 .5-.4.9-.88.9h-7.12c-.5 0-.88-.4-.88-.9z" fill="none"/><path d="M-306-280c0 4.14-4.48 7.5-10 7.5s-10-3.36-10-7.5c0-4.14 4.48-7.5 10-7.5s10 3.36 10 7.5z" stroke="#fff" fill="#4d9eff"/><path d="M-326-255c0-.28.22-.5.5-.5h19c.28 0 .5.22.5.5v14c0 .28-.22.5-.5.5h-19c-.28 0-.5-.22-.5-.5z" stroke="#333" fill-opacity="0"/><path d="M-304-216c0 6.63-5.37 12-12 12s-12-5.37-12-12 5.37-12 12-12 12 5.37 12 12zM-304-184c0 6.63-5.37 12-12 12s-12-5.37-12-12 5.37-12 12-12 12 5.37 12 12zM-304-152c0 6.63-5.37 12-12 12s-12-5.37-12-12 5.37-12 12-12 12 5.37 12 12z" stroke="#000" stroke-opacity=".25" fill="#f2f3f5"/><use xlink:href="#a" transform="matrix(1,0,0,1,-328,-356) translate(0 15.6)"/><use xlink:href="#b" transform="matrix(1,0,0,1,-328,-356) translate(37.95 15.6)"/><use xlink:href="#c" transform="matrix(1,0,0,1,-328,-356) translate(82.95 15.6)"/><use xlink:href="#d" transform="matrix(1,0,0,1,-292,-324) translate(0 14.8)"/><use xlink:href="#e" transform="matrix(1,0,0,1,-292,-292) translate(0 14.8)"/><use xlink:href="#f" transform="matrix(1,0,0,1,-292,-292) translate(28.73888888888889 14.8)"/><use xlink:href="#g" transform="matrix(1,0,0,1,-292,-260) translate(0 14.8)"/><use xlink:href="#h" transform="matrix(1,0,0,1,-292,-260) translate(50.516666666666666 14.8)"/><use xlink:href="#i" transform="matrix(1,0,0,1,-292,-260) translate(112.69999999999999 14.8)"/><use xlink:href="#j" transform="matrix(1,0,0,1,-292,-228) translate(0 14.8)"/><use xlink:href="#k" transform="matrix(1,0,0,1,-292,-196) translate(0 14.8)"/><use xlink:href="#l" transform="matrix(1,0,0,1,-292,-196) translate(48.18333333333333 14.8)"/><use xlink:href="#m" transform="matrix(1,0,0,1,-292,-164) translate(0 14.8)"/><use xlink:href="#l" transform="matrix(1,0,0,1,-292,-164) translate(54.44444444444444 14.8)"/><path d="M-2670.2 1312.2c22.1 0 40 17.9 40 40 0 22.08-17.9 40-40 40h-80c-22.08 0-40-17.92-40-40 0-22.1 17.92-40 40-40z" stroke="#000" fill="#9391ff"/><use xlink:href="#n" transform="matrix(1,0,0,1,-2774.1913531529262,1312.1888121227248) translate(45.025 43.6)"/><path d="M-2430.2 1279.7a8 8 0 0 1 8-8h185a8 8 0 0 1 8 8v145a8 8 0 0 1-8 8h-185a8 8 0 0 1-8-8z" stroke="#000" fill="#4d9eff"/><use xlink:href="#o" transform="matrix(1,0,0,1,-2410.1913531529262,1271.6888121227248) translate(8.849999999999994 84.10000000000001)"/><use xlink:href="#p" transform="matrix(1,0,0,1,-2410.1913531529262,1271.6888121227248) translate(78.65 84.10000000000001)"/><path d="M-2029.2 1279.7a8 8 0 0 1 8-8h185a8 8 0 0 1 8 8v145a8 8 0 0 1-8 8h-185a8 8 0 0 1-8-8z" stroke="#000" fill="#4d9eff"/><use xlink:href="#q" transform="matrix(1,0,0,1,-2009.1913531529262,1271.6888121227248) translate(11.099999999999994 84.10000000000001)"/><use xlink:href="#r" transform="matrix(1,0,0,1,-2009.1913531529262,1271.6888121227248) translate(91.94999999999999 84.10000000000001)"/><use xlink:href="#s" transform="matrix(1,0,0,1,-2009.1913531529262,1271.6888121227248) translate(111.94999999999999 84.10000000000001)"/><path d="M-1628.2 1279.7a8 8 0 0 1 8-8h185a8 8 0 0 1 8 8v145a8 8 0 0 1-8 8h-185a8 8 0 0 1-8-8z" stroke="#000" fill="#4d9eff"/><use xlink:href="#t" transform="matrix(1,0,0,1,-1608.1913531529262,1271.6888121227248) translate(44.575 73.3)"/><use xlink:href="#u" transform="matrix(1,0,0,1,-1608.1913531529262,1271.6888121227248) translate(19.65 94.9)"/><path d="M-1227.2 1279.7a8 8 0 0 1 8-8h185a8 8 0 0 1 8 8v145a8 8 0 0 1-8 8h-185a8 8 0 0 1-8-8z" stroke="#000" fill="#4d9eff"/><use xlink:href="#v" transform="matrix(1,0,0,1,-1207.1913531529262,1271.6888121227248) translate(1.3499999999999943 73.3)"/><use xlink:href="#w" transform="matrix(1,0,0,1,-1207.1913531529262,1271.6888121227248) translate(144.65 73.3)"/><use xlink:href="#x" transform="matrix(1,0,0,1,-1207.1913531529262,1271.6888121227248) translate(55.075 94.9)"/><path d="M-826.2 1279.7a8 8 0 0 1 8-8h185a8 8 0 0 1 8 8v145a8 8 0 0 1-8 8h-185a8 8 0 0 1-8-8z" stroke="#000" fill="#4d9eff"/><use xlink:href="#y" transform="matrix(1,0,0,1,-806.1913531529262,1271.6888121227248) translate(4.075000000000003 84.10000000000001)"/><use xlink:href="#r" transform="matrix(1,0,0,1,-806.1913531529262,1271.6888121227248) translate(120.97500000000001 84.10000000000001)"/><use xlink:href="#z" transform="matrix(1,0,0,1,-806.1913531529262,1271.6888121227248) translate(140.97500000000002 84.10000000000001)"/><path d="M-425.2 1279.7a8 8 0 0 1 8-8h185a8 8 0 0 1 8 8v145a8 8 0 0 1-8 8h-185a8 8 0 0 1-8-8z" stroke="#000" fill="#4d9eff"/><use xlink:href="#A" transform="matrix(1,0,0,1,-405.19135315292624,1271.6888121227248) translate(67 62.5)"/><use xlink:href="#B" transform="matrix(1,0,0,1,-405.19135315292624,1271.6888121227248) translate(6.349999999999994 84.10000000000001)"/><use xlink:href="#r" transform="matrix(1,0,0,1,-405.19135315292624,1271.6888121227248) translate(0.625 105.70000000000002)"/><use xlink:href="#C" transform="matrix(1,0,0,1,-405.19135315292624,1271.6888121227248) translate(20.625 105.70000000000002)"/><use xlink:href="#D" transform="matrix(1,0,0,1,-405.19135315292624,1271.6888121227248) translate(35.625 105.70000000000002)"/><use xlink:href="#E" transform="matrix(1,0,0,1,-405.19135315292624,1271.6888121227248) translate(105.475 105.70000000000002)"/><path d="M-24.2 1279.7a8 8 0 0 1 8-8h185a8 8 0 0 1 8 8v145a8 8 0 0 1-8 8h-185a8 8 0 0 1-8-8z" stroke="#000" fill="#4d9eff"/><use xlink:href="#F" transform="matrix(1,0,0,1,-4.19135315292624,1271.6888121227248) translate(7.075000000000003 73.3)"/><use xlink:href="#G" transform="matrix(1,0,0,1,-4.19135315292624,1271.6888121227248) translate(44.075 73.3)"/><use xlink:href="#H" transform="matrix(1,0,0,1,-4.19135315292624,1271.6888121227248) translate(117.97500000000001 73.3)"/><use xlink:href="#I" transform="matrix(1,0,0,1,-4.19135315292624,1271.6888121227248) translate(137.97500000000002 73.3)"/><use xlink:href="#r" transform="matrix(1,0,0,1,-4.19135315292624,1271.6888121227248) translate(34.575 94.9)"/><use xlink:href="#J" transform="matrix(1,0,0,1,-4.19135315292624,1271.6888121227248) translate(54.575 94.9)"/><path d="M470.56 1277.2a10 10 0 0 1 12.5 0l87.5 70a6.4 6.4 0 0 1 0 10l-87.5 70a10 10 0 0 1-12.5 0l-87.5-70a6.4 6.4 0 0 1 0-10z" stroke="#000" fill="#00c2a8"/><use xlink:href="#K" transform="matrix(1,0,0,1,426.80864684707376,1312.1888121227248) translate(27.575 22)"/><use xlink:href="#L" transform="matrix(1,0,0,1,426.80864684707376,1312.1888121227248) translate(5.100000000000001 43.6)"/><use xlink:href="#M" transform="matrix(1,0,0,1,426.80864684707376,1312.1888121227248) translate(81.94999999999999 43.6)"/><use xlink:href="#N" transform="matrix(1,0,0,1,426.80864684707376,1312.1888121227248) translate(10.524999999999999 65.2)"/><use xlink:href="#O" transform="matrix(1,0,0,1,426.80864684707376,1312.1888121227248) translate(40.525 65.2)"/><path d="M870.56 803.35a10 10 0 0 1 12.5 0l87.5 70a6.4 6.4 0 0 1 0 10l-87.5 70a10 10 0 0 1-12.5 0l-87.5-70a6.4 6.4 0 0 1 0-10z" stroke="#000" fill="#00c2a8"/><use xlink:href="#P" transform="matrix(1,0,0,1,826.8086468470738,838.3554787893916) translate(13.524999999999999 14.4)"/><use xlink:href="#Q" transform="matrix(1,0,0,1,826.8086468470738,838.3554787893916) translate(1.0499999999999972 36)"/><use xlink:href="#R" transform="matrix(1,0,0,1,826.8086468470738,838.3554787893916) translate(32.05 57.6)"/><use xlink:href="#J" transform="matrix(1,0,0,1,826.8086468470738,838.3554787893916) translate(14.075000000000003 79.20000000000002)"/><path d="M1271.56 414.2a10 10 0 0 1 12.5 0l87.5 70a6.4 6.4 0 0 1 0 10l-87.5 70a10 10 0 0 1-12.5 0l-87.5-70a6.4 6.4 0 0 1 0-10z" stroke="#000" fill="#00c2a8"/><use xlink:href="#A" transform="matrix(1,0,0,1,1227.8086468470738,449.1888121227248) translate(36.5 14.4)"/><use xlink:href="#S" transform="matrix(1,0,0,1,1227.8086468470738,449.1888121227248) translate(-3.4250000000000043 36)"/><use xlink:href="#w" transform="matrix(1,0,0,1,1227.8086468470738,449.1888121227248) translate(42.5 57.6)"/><use xlink:href="#T" transform="matrix(1,0,0,1,1227.8086468470738,449.1888121227248) translate(-41.925 79.20000000000002)"/><path d="M1672.56 956.7a10 10 0 0 1 12.5 0l87.5 70a6.4 6.4 0 0 1 0 10l-87.5 70a10 10 0 0 1-12.5 0l-87.5-70a6.4 6.4 0 0 1 0-10z" stroke="#000" fill="#00c2a8"/><use xlink:href="#U" transform="matrix(1,0,0,1,1628.8086468470738,991.6888121227248) translate(45 22)"/><use xlink:href="#V" transform="matrix(1,0,0,1,1628.8086468470738,991.6888121227248) translate(-41.349999999999994 43.6)"/><use xlink:href="#W" transform="matrix(1,0,0,1,1628.8086468470738,991.6888121227248) translate(25.55 65.2)"/><use xlink:href="#X" transform="matrix(1,0,0,1,1628.8086468470738,991.6888121227248) translate(43.5 65.2)"/><path d="M1979.8 778.2a8 8 0 0 1 8-8h185a8 8 0 0 1 8 8v145a8 8 0 0 1-8 8h-185a8 8 0 0 1-8-8z" stroke="#000" fill="#4d9eff"/><use xlink:href="#Y" transform="matrix(1,0,0,1,1999.8086468470738,770.1888121227248) translate(44.55 84.10000000000001)"/><path d="M1979.8 1139.2a8 8 0 0 1 8-8h185a8 8 0 0 1 8 8v145a8 8 0 0 1-8 8h-185a8 8 0 0 1-8-8z" stroke="#000" fill="#4d9eff"/><use xlink:href="#A" transform="matrix(1,0,0,1,1999.8086468470738,1131.1888121227248) translate(67 62.5)"/><use xlink:href="#V" transform="matrix(1,0,0,1,1999.8086468470738,1131.1888121227248) translate(-10.849999999999994 84.10000000000001)"/><use xlink:href="#r" transform="matrix(1,0,0,1,1999.8086468470738,1131.1888121227248) translate(55.025 105.70000000000002)"/><use xlink:href="#X" transform="matrix(1,0,0,1,1999.8086468470738,1131.1888121227248) translate(75.025 105.70000000000002)"/><path d="M2380.8 1112.36a8 8 0 0 1 8-8h185a8 8 0 0 1 8 8v145a8 8 0 0 1-8 8h-185a8 8 0 0 1-8-8z" stroke="#000" fill="#4d9eff"/><use xlink:href="#Z" transform="matrix(1,0,0,1,2400.8086468470738,1104.3554787893916) translate(45.05 62.5)"/><use xlink:href="#aa" transform="matrix(1,0,0,1,2400.8086468470738,1104.3554787893916) translate(76.95 62.5)"/><use xlink:href="#ab" transform="matrix(1,0,0,1,2400.8086468470738,1104.3554787893916) translate(16.049999999999997 84.10000000000001)"/><use xlink:href="#ac" transform="matrix(1,0,0,1,2400.8086468470738,1104.3554787893916) translate(131 84.10000000000001)"/><use xlink:href="#ad" transform="matrix(1,0,0,1,2400.8086468470738,1104.3554787893916) translate(-32.374999999999986 105.70000000000002)"/><path d="M2781.8 859.2a8 8 0 0 1 8-8h185a8 8 0 0 1 8 8v145a8 8 0 0 1-8 8h-185a8 8 0 0 1-8-8z" stroke="#000" fill="#4d9eff"/><use xlink:href="#ae" transform="matrix(1,0,0,1,2801.8086468470738,851.1888121227248) translate(5.049999999999997 62.5)"/><use xlink:href="#af" transform="matrix(1,0,0,1,2801.8086468470738,851.1888121227248) translate(37.05 62.5)"/><use xlink:href="#w" transform="matrix(1,0,0,1,2801.8086468470738,851.1888121227248) translate(73 84.10000000000001)"/><use xlink:href="#ag" transform="matrix(1,0,0,1,2801.8086468470738,851.1888121227248) translate(-17.44999999999999 105.70000000000002)"/><path d="M3182.8 859.2a8 8 0 0 1 8-8h185a8 8 0 0 1 8 8v145a8 8 0 0 1-8 8h-185a8 8 0 0 1-8-8z" stroke="#000" fill="#4d9eff"/><use xlink:href="#ae" transform="matrix(1,0,0,1,3202.8086468470738,851.1888121227248) translate(6.724999999999994 73.3)"/><use xlink:href="#ah" transform="matrix(1,0,0,1,3202.8086468470738,851.1888121227248) translate(38.724999999999994 73.3)"/><use xlink:href="#w" transform="matrix(1,0,0,1,3202.8086468470738,851.1888121227248) translate(139.275 73.3)"/><use xlink:href="#ai" transform="matrix(1,0,0,1,3202.8086468470738,851.1888121227248) translate(-2.924999999999997 94.9)"/><path d="M3677.56 856.7a10 10 0 0 1 12.5 0l87.5 70a6.4 6.4 0 0 1 0 10l-87.5 70a10 10 0 0 1-12.5 0l-87.5-70a6.4 6.4 0 0 1 0-10z" stroke="#000" fill="#00c2a8"/><use xlink:href="#U" transform="matrix(1,0,0,1,3633.8086468470738,891.6888121227248) translate(45 14.4)"/><use xlink:href="#aj" transform="matrix(1,0,0,1,3633.8086468470738,891.6888121227248) translate(-47.375 36)"/><use xlink:href="#W" transform="matrix(1,0,0,1,3633.8086468470738,891.6888121227248) translate(4.549999999999997 57.6)"/><use xlink:href="#ak" transform="matrix(1,0,0,1,3633.8086468470738,891.6888121227248) translate(22.499999999999996 57.6)"/><use xlink:href="#al" transform="matrix(1,0,0,1,3633.8086468470738,891.6888121227248) translate(65.45 57.6)"/><use xlink:href="#am" transform="matrix(1,0,0,1,3633.8086468470738,891.6888121227248) translate(2.2250000000000014 79.20000000000002)"/><use xlink:href="#an" transform="matrix(1,0,0,1,3633.8086468470738,891.6888121227248) translate(37.025 100.80000000000001)"/><use xlink:href="#ao" transform="matrix(1,0,0,1,3633.8086468470738,891.6888121227248) translate(-78.6 122.4)"/><path d="M3983.8 679.2a8 8 0 0 1 8-8h185a8 8 0 0 1 8 8v145a8 8 0 0 1-8 8h-185a8 8 0 0 1-8-8z" stroke="#000" fill="#4d9eff"/><use xlink:href="#A" transform="matrix(1,0,0,1,4003.8086468470738,671.1888121227248) translate(67 62.5)"/><use xlink:href="#ap" transform="matrix(1,0,0,1,4003.8086468470738,671.1888121227248) translate(-48.099999999999994 84.10000000000001)"/><use xlink:href="#r" transform="matrix(1,0,0,1,4003.8086468470738,671.1888121227248) translate(22.725 105.70000000000002)"/><use xlink:href="#aq" transform="matrix(1,0,0,1,4003.8086468470738,671.1888121227248) translate(42.725 105.70000000000002)"/><path d="M4384.8 679.2a8 8 0 0 1 8-8h185a8 8 0 0 1 8 8v145a8 8 0 0 1-8 8h-185a8 8 0 0 1-8-8z" stroke="#000" fill="#4d9eff"/><use xlink:href="#ar" transform="matrix(1,0,0,1,4404.808646847074,671.1888121227248) translate(64.5 40.89999999999999)"/><use xlink:href="#as" transform="matrix(1,0,0,1,4404.808646847074,671.1888121227248) translate(0.5999999999999943 62.49999999999999)"/><use xlink:href="#at" transform="matrix(1,0,0,1,4404.808646847074,671.1888121227248) translate(18.549999999999997 84.1)"/><use xlink:href="#au" transform="matrix(1,0,0,1,4404.808646847074,671.1888121227248) translate(19.75 105.70000000000002)"/><use xlink:href="#w" transform="matrix(1,0,0,1,4404.808646847074,671.1888121227248) translate(126.25 105.70000000000002)"/><use xlink:href="#J" transform="matrix(1,0,0,1,4404.808646847074,671.1888121227248) translate(44.575 127.30000000000001)"/><path d="M4785.8 679.2a8 8 0 0 1 8-8h185a8 8 0 0 1 8 8v145a8 8 0 0 1-8 8h-185a8 8 0 0 1-8-8z" stroke="#000" fill="#4d9eff"/><use xlink:href="#A" transform="matrix(1,0,0,1,4805.808646847074,671.1888121227248) translate(67 62.5)"/><use xlink:href="#av" transform="matrix(1,0,0,1,4805.808646847074,671.1888121227248) translate(-34.89999999999999 84.10000000000001)"/><use xlink:href="#r" transform="matrix(1,0,0,1,4805.808646847074,671.1888121227248) translate(17.074999999999996 105.70000000000002)"/><use xlink:href="#aw" transform="matrix(1,0,0,1,4805.808646847074,671.1888121227248) translate(37.074999999999996 105.70000000000002)"/><path d="M3983.8 1112.36a8 8 0 0 1 8-8h185a8 8 0 0 1 8 8v145a8 8 0 0 1-8 8h-185a8 8 0 0 1-8-8z" stroke="#000" fill="#4d9eff"/><use xlink:href="#ax" transform="matrix(1,0,0,1,4003.8086468470738,1104.3554787893916) translate(25.074999999999996 84.10000000000001)"/><use xlink:href="#ay" transform="matrix(1,0,0,1,4003.8086468470738,1104.3554787893916) translate(101.975 84.10000000000001)"/><path d="M776.8 1459.7a8 8 0 0 1 8-8h185a8 8 0 0 1 8 8v145a8 8 0 0 1-8 8h-185a8 8 0 0 1-8-8z" stroke="#000" fill="#4d9eff"/><use xlink:href="#az" transform="matrix(1,0,0,1,796.8086468470738,1451.6888121227248) translate(40.599999999999994 84.10000000000001)"/><use xlink:href="#aA" transform="matrix(1,0,0,1,796.8086468470738,1451.6888121227248) translate(82.5 84.10000000000001)"/><path d="M1177.8 1459.7a8 8 0 0 1 8-8h185a8 8 0 0 1 8 8v145a8 8 0 0 1-8 8h-185a8 8 0 0 1-8-8z" stroke="#000" fill="#4d9eff"/><use xlink:href="#Z" transform="matrix(1,0,0,1,1197.8086468470738,1451.6888121227248) translate(14.824999999999989 62.5)"/><use xlink:href="#aB" transform="matrix(1,0,0,1,1197.8086468470738,1451.6888121227248) translate(46.724999999999994 62.5)"/><use xlink:href="#aC" transform="matrix(1,0,0,1,1197.8086468470738,1451.6888121227248) translate(100.675 62.5)"/><use xlink:href="#aD" transform="matrix(1,0,0,1,1197.8086468470738,1451.6888121227248) translate(116.175 62.5)"/><use xlink:href="#w" transform="matrix(1,0,0,1,1197.8086468470738,1451.6888121227248) translate(131.175 62.5)"/><use xlink:href="#aE" transform="matrix(1,0,0,1,1197.8086468470738,1451.6888121227248) translate(3.125 84.10000000000001)"/><use xlink:href="#aF" transform="matrix(1,0,0,1,1197.8086468470738,1451.6888121227248) translate(151.925 84.10000000000001)"/><use xlink:href="#aG" transform="matrix(1,0,0,1,1197.8086468470738,1451.6888121227248) translate(75.5 105.70000000000002)"/><path d="M1578.8 1459.7a8 8 0 0 1 8-8h185a8 8 0 0 1 8 8v145a8 8 0 0 1-8 8h-185a8 8 0 0 1-8-8z" stroke="#000" fill="#4d9eff"/><use xlink:href="#aH" transform="matrix(1,0,0,1,1598.8086468470738,1451.6888121227248) translate(62.05 51.69999999999999)"/><use xlink:href="#aI" transform="matrix(1,0,0,1,1598.8086468470738,1451.6888121227248) translate(-2.424999999999997 73.3)"/><use xlink:href="#aJ" transform="matrix(1,0,0,1,1598.8086468470738,1451.6888121227248) translate(53.525 94.9)"/><use xlink:href="#aK" transform="matrix(1,0,0,1,1598.8086468470738,1451.6888121227248) translate(-13.125 116.5)"/><path d="M2099.8 1492.2c22.1 0 40 17.9 40 40 0 22.08-17.9 40-40 40h-80c-22.08 0-40-17.92-40-40 0-22.1 17.92-40 40-40z" stroke="#000" fill="#9391ff"/><use xlink:href="#aL" transform="matrix(1,0,0,1,1995.8086468470738,1492.1888121227248) translate(48 43.6)"/><path d="M-2629.2 1352.2h182.13" stroke="#333" fill="none"/><path d="M-2629.18 1352.66h-.54l.03-.46v-.5h.52z" stroke="#333" stroke-width=".05" fill="#333"/><path d="M-2432.3 1352.2l-14.27 4.62v-9.27z" stroke="#333" fill="#333"/><path d="M-2228.2 1352.2h182.12" stroke="#333" fill="none"/><path d="M-2228.18 1352.66h-.5v-.95h.5z" stroke="#333" stroke-width=".05" fill="#333"/><path d="M-2031.3 1352.2l-14.28 4.62v-9.27z" stroke="#333" fill="#333"/><path d="M-1827.2 1352.2h182.13" stroke="#333" fill="none"/><path d="M-1827.18 1352.66h-.5v-.95h.5z" stroke="#333" stroke-width=".05" fill="#333"/><path d="M-1630.3 1352.2l-14.28 4.62v-9.27z" stroke="#333" fill="#333"/><path d="M-1426.2 1352.2h182.13" stroke="#333" fill="none"/><path d="M-1426.18 1352.66h-.5v-.95h.5z" stroke="#333" stroke-width=".05" fill="#333"/><path d="M-1229.3 1352.2l-14.28 4.62v-9.27z" stroke="#333" fill="#333"/><path d="M-1025.2 1352.2h182.13" stroke="#333" fill="none"/><path d="M-1025.18 1352.66h-.5v-.95h.5z" stroke="#333" stroke-width=".05" fill="#333"/><path d="M-828.3 1352.2l-14.28 4.62v-9.27z" stroke="#333" fill="#333"/><path d="M-624.2 1352.2h182.13" stroke="#333" fill="none"/><path d="M-624.18 1352.66h-.5v-.95h.5z" stroke="#333" stroke-width=".05" fill="#333"/><path d="M-427.3 1352.2l-14.27 4.62v-9.27z" stroke="#333" fill="#333"/><path d="M-223.2 1352.2h182.12" stroke="#333" fill="none"/><path d="M-223.18 1352.66h-.5v-.95h.5z" stroke="#333" stroke-width=".05" fill="#333"/><path d="M-26.3 1352.2l-14.28 4.62v-9.27z" stroke="#333" fill="#333"/><path d="M177.8 1352.2h185.97" stroke="#333" fill="none"/><path d="M177.82 1352.66h-.5v-.95h.5z" stroke="#333" stroke-width=".05" fill="#333"/><path d="M378.53 1352.2l-14.26 4.62v-9.27z" stroke="#333" fill="#333"/><path d="M476.8 1274v-146.73a12 12 0 0 1 12-12h376a12 12 0 0 0 12-12V972.43" stroke="#333" fill="none"/><path d="M477.28 1274.53l-.47-.04-.47.03v-.55h.95z" stroke="#333" stroke-width=".05" fill="#333"/><path d="M876.8 957.67l4.64 14.26h-9.27z" stroke="#333" fill="#333"/><path d="M876.8 800.16v-104.4a12 12 0 0 1 12-12h377a12 12 0 0 0 12-12v-88.5" stroke="#333" fill="none"/><path d="M877.28 800.7l-.47-.04-.47.03v-.55h.95z" stroke="#333" stroke-width=".05" fill="#333"/><path d="M1277.8 568.5l4.64 14.27h-9.27z" stroke="#333" fill="#333"/><path d="M1277.8 567.38v181.06a12 12 0 0 0 12 12h377a12 12 0 0 1 12 12V937.6" stroke="#333" fill="none"/><path d="M1277.8 566.88l.48-.03v.55h-.95v-.55z" stroke="#333" stroke-width=".05" fill="#333"/><path d="M1678.8 952.38l-4.63-14.27h9.27z" stroke="#333" fill="#333"/><path d="M1877.86 1019.7l-.15 1.94-.45 1.9-.75 1.8-1.02 1.68-1.27 1.5-1.48 1.26-1.67 1.03-1.8.76-1.9.45-1.94.16h-89.43v-.95h89.4l1.82-.13 1.75-.42 1.67-.7 1.54-.94 1.38-1.16 1.17-1.38.95-1.54.7-1.67.42-1.76.14-1.83V952h.96zm85.07-168.54h-73.52l-1.82.15-1.75.43-1.67.7-1.55.94-1.36 1.17-1.18 1.38-.94 1.54-.7 1.67-.4 1.76-.16 1.8v67.7h-.95v-67.73l.16-1.93.46-1.9.75-1.82 1.02-1.66 1.27-1.5 1.48-1.26 1.67-1.03 1.8-.75 1.9-.45 1.95-.16h73.56z" stroke="#008a0e" stroke-width=".05" fill="#008a0e"/><path d="M1775.98 1032.16h-.56l.05-.47-.05-.5h.56z" fill="#008a0e"/><path stroke="#008a0e" stroke-width=".05" fill="#008a0e"/><path d="M1977.7 850.7l-14.28 4.62v-9.27z" fill="#008a0e"/><path d="M1979.23 850.7l-16.28 5.28V845.4zm-15.33 3.97l12.25-3.98-12.25-4z" stroke="#008a0e" stroke-width=".05" fill="#008a0e"/><g><use xlink:href="#aM" transform="matrix(1,0,0,1,1862.712159761975,930.3888121227247) translate(0 14.4)"/></g><path d="M1884.16 1209.96l1.67.7 1.75.4 1.83.15h4.9v.96h-4.93l-1.93-.15-1.9-.44-1.82-.75-.56-.34.5-.8zm24.84 2.2h-9.8v-.95h9.8zm14.7 0h-9.8v-.95h9.8zm14.7 0h-9.8v-.95h9.8zm14.72 0h-9.8v-.95h9.8zm9.8 0h-4.9v-.95h4.9zm-85.06-12.5l.15 1.83.43 1.75.7 1.67.3.5-.8.5-.36-.57-.75-1.8-.46-1.9-.15-1.94v-5.2h.96zm0-10.37h-.95v-10.4h.96zm0-15.6h-.95v-10.4h.96zm0-15.6h-.95v-10.4h.96zm0-15.6h-.95v-10h.96zm0-31.6h-.95v-10h.96zm0-15.2h-.95v-10.4h.96zm0-15.6h-.95v-10.4h.96zm0-15.6h-.95v-10.4h.96zm-1.36-26.47l.75 1.8.46 1.9.16 1.94v5.22h-.95v-5.2l-.13-1.8-.42-1.77-.7-1.67-.3-.5.8-.5zm-9.16-6.66l1.9.45 1.8.75.58.35-.5.8-.5-.3-1.67-.7-1.76-.4-1.83-.16h-4.95v-.95h5zm-86.4.8h-4.97v-.96h4.96zm14.9 0h-9.94v-.96h9.94zm14.9 0h-9.93v-.96h9.94zm14.9 0h-9.93v-.96h9.94zm14.9 0h-9.93v-.96h9.95zm14.9 0h-9.92v-.96h9.93z" stroke="#e81313" stroke-width=".05" fill="#e81313"/><path d="M1775.98 1032.16h-.56l.05-.47-.05-.5h.56z" fill="#e81313"/><path stroke="#e81313" stroke-width=".05" fill="#e81313"/><path d="M1977.7 1211.7l-14.28 4.62v-9.27z" fill="#e81313"/><path d="M1979.23 1211.7l-16.28 5.28v-10.58zm-15.33 3.97l12.25-3.98-12.25-4z" stroke="#e81313" stroke-width=".05" fill="#e81313"/><g><use xlink:href="#aN" transform="matrix(1,0,0,1,1865.912159761975,1110.8888121227249) translate(0 14.4)"/></g><path d="M2181.8 1211.7h87a12 12 0 0 0 12-12v-2.85a12 12 0 0 1 12-12h71.13" stroke="#333" fill="none"/><path d="M2181.82 1212.16h-.5v-.95h.5z" stroke="#333" stroke-width=".05" fill="#333"/><path d="M2378.7 1184.86l-14.27 4.63v-9.28z" stroke="#333" fill="#333"/><path d="M2582.8 1184.86h87a12 12 0 0 0 12-12V943.7a12 12 0 0 1 12-12h71.13" stroke="#333" fill="none"/><path d="M2582.82 1185.33h-.5v-.95h.5z" stroke="#333" stroke-width=".05" fill="#333"/><path d="M2779.7 931.7l-14.27 4.62v-9.27z" stroke="#333" fill="#333"/><path d="M2983.8 931.7h182.13" stroke="#333" fill="none"/><path d="M2983.82 932.16h-.5v-.95h.5z" stroke="#333" stroke-width=".05" fill="#333"/><path d="M3180.7 931.7l-14.27 4.62v-9.27z" stroke="#333" fill="#333"/><path d="M3384.8 931.7h185.97" stroke="#333" fill="none"/><path d="M3384.82 932.16h-.5v-.95h.5z" stroke="#333" stroke-width=".05" fill="#333"/><path d="M3585.53 931.7l-14.26 4.62v-9.27z" stroke="#333" fill="#333"/><path d="M3882.36 919.7l-.15 1.94-.45 1.9-.75 1.8-1.02 1.68-1.27 1.5-1.48 1.26-1.67 1.02-1.8.75-1.9.46-1.94.16h-88.93v-.95h88.9l1.82-.13 1.75-.42 1.67-.7 1.54-.94 1.38-1.16 1.17-1.38.96-1.54.7-1.67.4-1.76.15-1.83V852.5h.96zm84.57-167.54h-73.02l-1.82.15-1.75.43-1.67.7-1.55.94-1.36 1.17-1.18 1.38-.94 1.54-.7 1.67-.4 1.76-.16 1.8v67.2h-.95v-67.23l.16-1.93.46-1.9.75-1.82 1.02-1.66 1.26-1.5 1.5-1.26 1.66-1.03 1.8-.75 1.9-.45 1.95-.16h73.06z" stroke="#008a0e" stroke-width=".05" fill="#008a0e"/><path d="M3780.98 932.16h-.56l.05-.47-.05-.5h.56z" fill="#008a0e"/><path stroke="#008a0e" stroke-width=".05" fill="#008a0e"/><path d="M3981.7 751.7l-14.27 4.62v-9.27z" fill="#008a0e"/><path d="M3983.23 751.7l-16.28 5.28V746.4zm-15.33 3.97l12.25-3.98-12.25-4z" stroke="#008a0e" stroke-width=".05" fill="#008a0e"/><g><use xlink:href="#aM" transform="matrix(1,0,0,1,3867.2121597619753,830.8888121227251) translate(0 14.4)"/></g><path d="M4185.8 751.7h182.13" stroke="#333" fill="none"/><path d="M4185.82 752.16h-.5v-.95h.5z" stroke="#333" stroke-width=".05" fill="#333"/><path d="M4382.7 751.7l-14.27 4.62v-9.27z" stroke="#333" fill="#333"/><path d="M4586.8 751.7h182.13" stroke="#333" fill="none"/><path d="M4586.82 752.16h-.5v-.95h.5z" stroke="#333" stroke-width=".05" fill="#333"/><path d="M4783.7 751.7l-14.27 4.62v-9.27z" stroke="#333" fill="#333"/><path d="M3888.66 1183.12l1.67.7 1.75.42 1.83.14h4.86v.95h-4.9l-1.93-.15-1.9-.46-1.8-.75-.57-.35.5-.8zm24.7 2.2h-9.73v-.94h9.73zm14.6 0h-9.73v-.94h9.74zm14.62 0h-9.74v-.94h9.74zm14.6 0h-9.73v-.94h9.74zm9.75 0h-4.87v-.94h4.87zm-84.57-12.48l.15 1.82.43 1.76.7 1.67.3.5-.8.5-.36-.58-.75-1.8-.46-1.9-.15-1.95v-5.1h.96zm0-10.17h-.95v-10.2h.96zm0-15.28h-.95v-10.2h.96zm0-15.3l-.95.02v-10.2h.96zm0-15.26h-.95v-10.2h.96zm0-15.28h-.95v-10.2h.96zm0-15.28h-.95v-10.18h.96zm0-15.28h-.95v-1.93h.96zm0-23.53h-.95v-1.93h.96zm0-7.02h-.95v-10.2h.96zm0-15.28h-.95v-10.2h.96zm0-15.28h-.95v-10.2h.96zm0-15.28h-.95v-10.2h.96zm0-15.28h-.95v-10.2h.96zm0-15.28h-.95v-10.2h.96zm-1.36-26.03l.75 1.8.46 1.9.16 1.94v5.1h-.95v-5.06l-.13-1.8-.42-1.77-.7-1.67-.3-.5.8-.5zm-9.16-6.66l1.9.45 1.8.75.58.35-.5.8-.5-.3-1.67-.7-1.76-.4-1.83-.16h-4.92v-.95h4.96zm-85.93.8h-4.93v-.96h4.94zm14.83 0h-9.88v-.96h9.88zm14.82 0h-9.88v-.96h9.88zm14.82 0h-9.88v-.96h9.87zm14.82 0h-9.9v-.96h9.9zm14.8 0h-9.87v-.96h9.88z" stroke="#e81313" stroke-width=".05" fill="#e81313"/><path d="M3780.98 932.16h-.56l.05-.47-.05-.5h.56z" fill="#e81313"/><path stroke="#e81313" stroke-width=".05" fill="#e81313"/><path d="M3981.7 1184.86l-14.27 4.63v-9.28z" fill="#e81313"/><path d="M3983.23 1184.86l-16.28 5.3v-10.6zm-15.33 3.98l12.25-3.98-12.25-4z" stroke="#e81313" stroke-width=".05" fill="#e81313"/><g><use xlink:href="#aN" transform="matrix(1,0,0,1,3870.4121597619755,1047.472145456058) translate(0 14.4)"/></g><path d="M3982.8 1184.86H2598.7" stroke="#333" fill="none"/><path d="M3983.3 1185.33h-.5v-.95h.5z" stroke="#333" stroke-width=".05" fill="#333"/><path d="M2583.93 1184.86l14.26-4.64v9.27z" stroke="#333" fill="#333"/><path d="M973.97 878.36h291.84a12 12 0 0 1 12 12v129.33a12 12 0 0 0 12 12h275.97" stroke="#333" fill="none"/><path d="M973.98 878.83h-.56l.05-.48-.05-.47h.56z" stroke="#333" stroke-width=".05" fill="#333"/><path d="M1580.53 1031.7l-14.26 4.62v-9.27z" stroke="#333" fill="#333"/><path d="M1877.86 1172.84l.15 1.82.43 1.76.7 1.67.93 1.53 1.18 1.37 1.37 1.18 1.56.94 1.67.7 1.75.42 1.83.14h474.53v.95h-474.56l-1.93-.15-1.9-.46-1.82-.75-1.67-1.02-1.48-1.27-1.28-1.5-1.03-1.66-.75-1.8-.46-1.9-.15-1.95v-40.38h.96zm0-61.95h-.95V952h.96zm-10.52-622.03l1.9.45 1.8.75 1.68 1.03 1.5 1.27 1.26 1.5 1.02 1.65.75 1.8.46 1.92.16 1.93V930.4h-.95V501.2l-.13-1.8-.42-1.77-.7-1.67-.94-1.54-1.16-1.38-1.38-1.17-1.54-.95-1.67-.7-1.76-.4-1.83-.16h-490.4v-.95h490.44z" stroke="#333" stroke-width=".05" fill="#333"/><path d="M1374.98 489.66h-.56l.05-.47-.05-.5h.56z" fill="#333"/><path stroke="#333" stroke-width=".05" fill="#333"/><path d="M2378.7 1184.86l-14.27 4.63v-9.28z" fill="#333"/><path d="M2380.23 1184.86l-16.28 5.3v-10.6zm-15.33 3.98l12.25-3.98-12.25-4z" stroke="#333" stroke-width=".05" fill="#333"/><path d="M573.97 1352.2h88.92a12 12 0 0 1 12 12v156a12 12 0 0 0 12 12h73.02" stroke="#333" fill="none"/><path d="M573.98 1352.66h-.56l.05-.47-.05-.5h.56z" stroke="#333" stroke-width=".05" fill="#333"/><path d="M774.7 1532.2l-14.28 4.62v-9.27z" stroke="#333" fill="#333"/><path d="M978.8 1532.2h182.13" stroke="#333" fill="none"/><path d="M978.82 1532.66h-.5v-.95h.5z" stroke="#333" stroke-width=".05" fill="#333"/><path d="M1175.7 1532.2l-14.28 4.62v-9.27z" stroke="#333" fill="#333"/><path d="M1379.8 1532.2h182.13" stroke="#333" fill="none"/><path d="M1379.82 1532.66h-.5v-.95h.5z" stroke="#333" stroke-width=".05" fill="#333"/><path d="M1576.7 1532.2l-14.28 4.62v-9.27z" stroke="#333" fill="#333"/><path d="M1780.8 1532.2h182.12" stroke="#333" fill="none"/><path d="M1780.82 1532.66h-.5v-.95h.5z" stroke="#333" stroke-width=".05" fill="#333"/><path d="M1977.7 1532.2l-14.28 4.62v-9.27z" stroke="#333" fill="#333"/><defs><path d="M238-95c0 69-44 99-111 99C63 4 22-25 22-93v-155h51v151c-1 38 19 59 55 60 90 1 49-130 58-211h52v153" id="aO"/><path d="M137-138c1-29-70-34-71-4 15 46 118 7 119 86 1 83-164 76-172 9l43-7c4 19 20 25 44 25 33 8 57-30 24-41C81-84 22-81 20-136c-2-80 154-74 161-7" id="aP"/><path d="M185-48c-13 30-37 53-82 52C43 2 14-33 14-96s30-98 90-98c62 0 83 45 84 108H66c0 31 8 55 39 56 18 0 30-7 34-22zm-45-69c5-46-57-63-70-21-2 6-4 13-4 21h74" id="aQ"/><g id="a"><use transform="matrix(0.05,0,0,0.05,0,0)" xlink:href="#aO"/><use transform="matrix(0.05,0,0,0.05,12.950000000000001,0)" xlink:href="#aP"/><use transform="matrix(0.05,0,0,0.05,22.950000000000003,0)" xlink:href="#aQ"/></g><path d="M190-63c-7 42-38 67-86 67-59 0-84-38-90-98-12-110 154-137 174-36l-49 2c-2-19-15-32-35-32-30 0-35 28-38 64-6 74 65 87 74 30" id="aR"/><path d="M133-34C117-15 103 5 69 4 32 3 11-16 11-54c-1-60 55-63 116-61 1-26-3-47-28-47-18 1-26 9-28 27l-52-2c7-38 36-58 82-57s74 22 75 68l1 82c-1 14 12 18 25 15v27c-30 8-71 5-69-32zm-48 3c29 0 43-24 42-57-32 0-66-3-65 30 0 17 8 27 23 27" id="aS"/><g id="b"><use transform="matrix(0.05,0,0,0.05,0,0)" xlink:href="#aR"/><use transform="matrix(0.05,0,0,0.05,10,0)" xlink:href="#aS"/><use transform="matrix(0.05,0,0,0.05,20,0)" xlink:href="#aP"/><use transform="matrix(0.05,0,0,0.05,30,0)" xlink:href="#aQ"/></g><path d="M114-157C55-157 80-60 75 0H25v-261h50l-1 109c12-26 28-41 61-42 86-1 58 113 63 194h-50c-7-57 23-157-34-157" id="aT"/><path d="M135-194c53 0 70 44 70 98 0 56-19 98-73 100-31 1-45-17-59-34 3 33 2 69 2 105H25l-1-265h48c2 10 0 23 3 31 11-24 29-35 60-35zM114-30c33 0 39-31 40-66 0-38-9-64-40-64-56 0-55 130 0 130" id="aU"/><g id="c"><use transform="matrix(0.05,0,0,0.05,0,0)" xlink:href="#aP"/><use transform="matrix(0.05,0,0,0.05,10,0)" xlink:href="#aT"/><use transform="matrix(0.05,0,0,0.05,20.950000000000003,0)" xlink:href="#aS"/><use transform="matrix(0.05,0,0,0.05,30.950000000000003,0)" xlink:href="#aU"/><use transform="matrix(0.05,0,0,0.05,41.900000000000006,0)" xlink:href="#aQ"/><use transform="matrix(0.05,0,0,0.05,51.900000000000006,0)" xlink:href="#aP"/></g><path d="M205 0l-28-72H64L36 0H1l101-248h38L239 0h-34zm-38-99l-47-123c-12 45-31 82-46 123h93" id="aV"/><path d="M96-169c-40 0-48 33-48 73s9 75 48 75c24 0 41-14 43-38l32 2c-6 37-31 61-74 61-59 0-76-41-82-99-10-93 101-131 147-64 4 7 5 14 7 22l-32 3c-4-21-16-35-41-35" id="aW"/><path d="M59-47c-2 24 18 29 38 22v24C64 9 27 4 27-40v-127H5v-23h24l9-43h21v43h35v23H59v120" id="aX"/><path d="M100-194c62-1 85 37 85 99 1 63-27 99-86 99S16-35 15-95c0-66 28-99 85-99zM99-20c44 1 53-31 53-75 0-43-8-75-51-75s-53 32-53 75 10 74 51 75" id="aY"/><path d="M114-163C36-179 61-72 57 0H25l-1-190h30c1 12-1 29 2 39 6-27 23-49 58-41v29" id="aZ"/><g id="d"><use transform="matrix(0.03888888888888889,0,0,0.03888888888888889,0,0)" xlink:href="#aV"/><use transform="matrix(0.03888888888888889,0,0,0.03888888888888889,9.333333333333334,0)" xlink:href="#aW"/><use transform="matrix(0.03888888888888889,0,0,0.03888888888888889,16.333333333333336,0)" xlink:href="#aX"/><use transform="matrix(0.03888888888888889,0,0,0.03888888888888889,20.22222222222223,0)" xlink:href="#aY"/><use transform="matrix(0.03888888888888889,0,0,0.03888888888888889,28.000000000000004,0)" xlink:href="#aZ"/></g><path d="M232-93c-1 65-40 97-104 97C67 4 28-28 28-90v-158h33c8 89-33 224 67 224 102 0 64-133 71-224h33v155" id="ba"/><path d="M135-143c-3-34-86-38-87 0 15 53 115 12 119 90S17 21 10-45l28-5c4 36 97 45 98 0-10-56-113-15-118-90-4-57 82-63 122-42 12 7 21 19 24 35" id="bb"/><path d="M100-194c63 0 86 42 84 106H49c0 40 14 67 53 68 26 1 43-12 49-29l28 8c-11 28-37 45-77 45C44 4 14-33 15-96c1-61 26-98 85-98zm52 81c6-60-76-77-97-28-3 7-6 17-6 28h103" id="bc"/><g id="e"><use transform="matrix(0.03888888888888889,0,0,0.03888888888888889,0,0)" xlink:href="#ba"/><use transform="matrix(0.03888888888888889,0,0,0.03888888888888889,10.072222222222223,0)" xlink:href="#bb"/><use transform="matrix(0.03888888888888889,0,0,0.03888888888888889,17.072222222222223,0)" xlink:href="#bc"/></g><path d="M212-179c-10-28-35-45-73-45-59 0-87 40-87 99 0 60 29 101 89 101 43 0 62-24 78-52l27 14C228-24 195 4 139 4 59 4 22-46 18-125c-6-104 99-153 187-111 19 9 31 26 39 46" id="bd"/><path d="M141-36C126-15 110 5 73 4 37 3 15-17 15-53c-1-64 63-63 125-63 3-35-9-54-41-54-24 1-41 7-42 31l-33-3c5-37 33-52 76-52 45 0 72 20 72 64v82c-1 20 7 32 28 27v20c-31 9-61-2-59-35zM48-53c0 20 12 33 32 33 41-3 63-29 60-74-43 2-92-5-92 41" id="be"/><g id="f"><use transform="matrix(0.03888888888888889,0,0,0.03888888888888889,0,0)" xlink:href="#bd"/><use transform="matrix(0.03888888888888889,0,0,0.03888888888888889,10.072222222222223,0)" xlink:href="#be"/><use transform="matrix(0.03888888888888889,0,0,0.03888888888888889,17.85,0)" xlink:href="#bb"/><use transform="matrix(0.03888888888888889,0,0,0.03888888888888889,24.85,0)" xlink:href="#bc"/></g><path d="M185-189c-5-48-123-54-124 2 14 75 158 14 163 119 3 78-121 87-175 55-17-10-28-26-33-46l33-7c5 56 141 63 141-1 0-78-155-14-162-118-5-82 145-84 179-34 5 7 8 16 11 25" id="bf"/><path d="M179-190L93 31C79 59 56 82 12 73V49c39 6 53-20 64-50L1-190h34L92-34l54-156h33" id="bg"/><path d="M210-169c-67 3-38 105-44 169h-31v-121c0-29-5-50-35-48C34-165 62-65 56 0H25l-1-190h30c1 10-1 24 2 32 10-44 99-50 107 0 11-21 27-35 58-36 85-2 47 119 55 194h-31v-121c0-29-5-49-35-48" id="bh"/><g id="g"><use transform="matrix(0.03888888888888889,0,0,0.03888888888888889,0,0)" xlink:href="#bf"/><use transform="matrix(0.03888888888888889,0,0,0.03888888888888889,9.333333333333334,0)" xlink:href="#bg"/><use transform="matrix(0.03888888888888889,0,0,0.03888888888888889,16.333333333333336,0)" xlink:href="#bb"/><use transform="matrix(0.03888888888888889,0,0,0.03888888888888889,23.333333333333332,0)" xlink:href="#aX"/><use transform="matrix(0.03888888888888889,0,0,0.03888888888888889,27.22222222222223,0)" xlink:href="#bc"/><use transform="matrix(0.03888888888888889,0,0,0.03888888888888889,35,0)" xlink:href="#bh"/></g><path d="M115-194c53 0 69 39 70 98 0 66-23 100-70 100C84 3 66-7 56-30L54 0H23l1-261h32v101c10-23 28-34 59-34zm-8 174c40 0 45-34 45-75 0-40-5-75-45-74-42 0-51 32-51 76 0 43 10 73 51 73" id="bi"/><path d="M84 4C-5 8 30-112 23-190h32v120c0 31 7 50 39 49 72-2 45-101 50-169h31l1 190h-30c-1-10 1-25-2-33-11 22-28 36-60 37" id="bj"/><path d="M117-194c89-4 53 116 60 194h-32v-121c0-31-8-49-39-48C34-167 62-67 57 0H25l-1-190h30c1 10-1 24 2 32 11-22 29-35 61-36" id="bk"/><path d="M85-194c31 0 48 13 60 33l-1-100h32l1 261h-30c-2-10 0-23-3-31C134-8 116 4 85 4 32 4 16-35 15-94c0-66 23-100 70-100zm9 24c-40 0-46 34-46 75 0 40 6 74 45 74 42 0 51-32 51-76 0-42-9-74-50-73" id="bl"/><g id="h"><use transform="matrix(0.03888888888888889,0,0,0.03888888888888889,0,0)" xlink:href="#bi"/><use transform="matrix(0.03888888888888889,0,0,0.03888888888888889,7.777777777777778,0)" xlink:href="#aY"/><use transform="matrix(0.03888888888888889,0,0,0.03888888888888889,15.555555555555555,0)" xlink:href="#bj"/><use transform="matrix(0.03888888888888889,0,0,0.03888888888888889,23.333333333333332,0)" xlink:href="#bk"/><use transform="matrix(0.03888888888888889,0,0,0.03888888888888889,31.11111111111111,0)" xlink:href="#bl"/><use transform="matrix(0.03888888888888889,0,0,0.03888888888888889,38.888888888888886,0)" xlink:href="#be"/><use transform="matrix(0.03888888888888889,0,0,0.03888888888888889,46.666666666666664,0)" xlink:href="#aZ"/><use transform="matrix(0.03888888888888889,0,0,0.03888888888888889,51.294444444444444,0)" xlink:href="#bg"/></g><path d="M141 0L90-78 38 0H4l68-98-65-92h35l48 74 47-74h35l-64 92 68 98h-35" id="bm"/><g id="i"><use transform="matrix(0.03888888888888889,0,0,0.03888888888888889,0,0)" xlink:href="#bi"/><use transform="matrix(0.03888888888888889,0,0,0.03888888888888889,7.777777777777778,0)" xlink:href="#aY"/><use transform="matrix(0.03888888888888889,0,0,0.03888888888888889,15.555555555555555,0)" xlink:href="#bm"/></g><path d="M24-231v-30h32v30H24zM24 0v-190h32V0H24" id="bn"/><g id="j"><use transform="matrix(0.03888888888888889,0,0,0.03888888888888889,0,0)" xlink:href="#aV"/><use transform="matrix(0.03888888888888889,0,0,0.03888888888888889,9.333333333333334,0)" xlink:href="#bb"/><use transform="matrix(0.03888888888888889,0,0,0.03888888888888889,16.333333333333336,0)" xlink:href="#bb"/><use transform="matrix(0.03888888888888889,0,0,0.03888888888888889,23.333333333333332,0)" xlink:href="#aY"/><use transform="matrix(0.03888888888888889,0,0,0.03888888888888889,31.111111111111114,0)" xlink:href="#aW"/><use transform="matrix(0.03888888888888889,0,0,0.03888888888888889,38.111111111111114,0)" xlink:href="#bn"/><use transform="matrix(0.03888888888888889,0,0,0.03888888888888889,41.18333333333334,0)" xlink:href="#be"/><use transform="matrix(0.03888888888888889,0,0,0.03888888888888889,48.96111111111111,0)" xlink:href="#aX"/><use transform="matrix(0.03888888888888889,0,0,0.03888888888888889,52.85,0)" xlink:href="#bn"/><use transform="matrix(0.03888888888888889,0,0,0.03888888888888889,55.922222222222224,0)" xlink:href="#aY"/><use transform="matrix(0.03888888888888889,0,0,0.03888888888888889,63.7,0)" xlink:href="#bk"/></g><path d="M33 0v-248h34V0H33" id="bo"/><path d="M24 0v-261h32V0H24" id="bp"/><g id="k"><use transform="matrix(0.03888888888888889,0,0,0.03888888888888889,0,0)" xlink:href="#bo"/><use transform="matrix(0.03888888888888889,0,0,0.03888888888888889,3.888888888888889,0)" xlink:href="#aW"/><use transform="matrix(0.03888888888888889,0,0,0.03888888888888889,10.88888888888889,0)" xlink:href="#bp"/><use transform="matrix(0.03888888888888889,0,0,0.03888888888888889,13.961111111111112,0)" xlink:href="#bj"/><use transform="matrix(0.03888888888888889,0,0,0.03888888888888889,21.73888888888889,0)" xlink:href="#bl"/><use transform="matrix(0.03888888888888889,0,0,0.03888888888888889,29.516666666666666,0)" xlink:href="#bc"/><use transform="matrix(0.03888888888888889,0,0,0.03888888888888889,37.294444444444444,0)" xlink:href="#bb"/></g><g id="l"><use transform="matrix(0.03888888888888889,0,0,0.03888888888888889,0,0)" xlink:href="#be"/><use transform="matrix(0.03888888888888889,0,0,0.03888888888888889,7.777777777777778,0)" xlink:href="#bb"/><use transform="matrix(0.03888888888888889,0,0,0.03888888888888889,14.777777777777779,0)" xlink:href="#bb"/><use transform="matrix(0.03888888888888889,0,0,0.03888888888888889,21.77777777777778,0)" xlink:href="#aY"/><use transform="matrix(0.03888888888888889,0,0,0.03888888888888889,29.555555555555557,0)" xlink:href="#aW"/><use transform="matrix(0.03888888888888889,0,0,0.03888888888888889,36.55555555555556,0)" xlink:href="#bn"/><use transform="matrix(0.03888888888888889,0,0,0.03888888888888889,39.62777777777778,0)" xlink:href="#be"/><use transform="matrix(0.03888888888888889,0,0,0.03888888888888889,47.40555555555556,0)" xlink:href="#aX"/><use transform="matrix(0.03888888888888889,0,0,0.03888888888888889,51.294444444444444,0)" xlink:href="#bn"/><use transform="matrix(0.03888888888888889,0,0,0.03888888888888889,54.36666666666667,0)" xlink:href="#aY"/><use transform="matrix(0.03888888888888889,0,0,0.03888888888888889,62.144444444444446,0)" xlink:href="#bk"/></g><path d="M30 0v-248h187v28H63v79h144v27H63v87h162V0H30" id="bq"/><g id="m"><use transform="matrix(0.03888888888888889,0,0,0.03888888888888889,0,0)" xlink:href="#bq"/><use transform="matrix(0.03888888888888889,0,0,0.03888888888888889,9.333333333333334,0)" xlink:href="#bm"/><use transform="matrix(0.03888888888888889,0,0,0.03888888888888889,16.333333333333336,0)" xlink:href="#aX"/><use transform="matrix(0.03888888888888889,0,0,0.03888888888888889,20.22222222222223,0)" xlink:href="#bc"/><use transform="matrix(0.03888888888888889,0,0,0.03888888888888889,28.000000000000004,0)" xlink:href="#bk"/><use transform="matrix(0.03888888888888889,0,0,0.03888888888888889,35.77777777777778,0)" xlink:href="#bl"/><use transform="matrix(0.03888888888888889,0,0,0.03888888888888889,43.55555555555556,0)" xlink:href="#bb"/></g><g id="n"><use transform="matrix(0.05,0,0,0.05,0,0)" xlink:href="#bf"/><use transform="matrix(0.05,0,0,0.05,12,0)" xlink:href="#aX"/><use transform="matrix(0.05,0,0,0.05,17,0)" xlink:href="#be"/><use transform="matrix(0.05,0,0,0.05,27,0)" xlink:href="#aZ"/><use transform="matrix(0.05,0,0,0.05,32.95,0)" xlink:href="#aX"/></g><path d="M9 0v-24l116-142H16v-24h144v24L44-24h123V0H9" id="br"/><g id="o"><use transform="matrix(0.05,0,0,0.05,0,0)" xlink:href="#bo"/><use transform="matrix(0.05,0,0,0.05,5,0)" xlink:href="#bk"/><use transform="matrix(0.05,0,0,0.05,15,0)" xlink:href="#bn"/><use transform="matrix(0.05,0,0,0.05,18.95,0)" xlink:href="#aX"/><use transform="matrix(0.05,0,0,0.05,23.95,0)" xlink:href="#bn"/><use transform="matrix(0.05,0,0,0.05,27.899999999999995,0)" xlink:href="#be"/><use transform="matrix(0.05,0,0,0.05,37.9,0)" xlink:href="#bp"/><use transform="matrix(0.05,0,0,0.05,41.85,0)" xlink:href="#bn"/><use transform="matrix(0.05,0,0,0.05,45.800000000000004,0)" xlink:href="#br"/><use transform="matrix(0.05,0,0,0.05,54.800000000000004,0)" xlink:href="#bc"/></g><path d="M137 0h-34L2-248h35l83 218 83-218h36" id="bs"/><g id="p"><use transform="matrix(0.05,0,0,0.05,0,0)" xlink:href="#bs"/><use transform="matrix(0.05,0,0,0.05,10.65,0)" xlink:href="#be"/><use transform="matrix(0.05,0,0,0.05,20.65,0)" xlink:href="#aZ"/><use transform="matrix(0.05,0,0,0.05,26.599999999999994,0)" xlink:href="#bn"/><use transform="matrix(0.05,0,0,0.05,30.549999999999997,0)" xlink:href="#be"/><use transform="matrix(0.05,0,0,0.05,40.55,0)" xlink:href="#bi"/><use transform="matrix(0.05,0,0,0.05,50.55,0)" xlink:href="#bp"/><use transform="matrix(0.05,0,0,0.05,54.5,0)" xlink:href="#bc"/><use transform="matrix(0.05,0,0,0.05,64.5,0)" xlink:href="#bb"/></g><path d="M240 0l2-218c-23 76-54 145-80 218h-23L58-218 59 0H30v-248h44l77 211c21-75 51-140 76-211h43V0h-30" id="bt"/><path d="M127-220V0H93v-220H8v-28h204v28h-85" id="bu"/><path d="M26 75v-336h71v23H56V52h41v23H26" id="bv"/><path d="M3 75V52h41v-290H3v-23h71V75H3" id="bw"/><g id="q"><use transform="matrix(0.05,0,0,0.05,0,0)" xlink:href="#bn"/><use transform="matrix(0.05,0,0,0.05,3.95,0)" xlink:href="#bb"/><use transform="matrix(0.05,0,0,0.05,12.949999999999998,0)" xlink:href="#bo"/><use transform="matrix(0.05,0,0,0.05,17.95,0)" xlink:href="#bk"/><use transform="matrix(0.05,0,0,0.05,27.950000000000003,0)" xlink:href="#bt"/><use transform="matrix(0.05,0,0,0.05,42.9,0)" xlink:href="#bf"/><use transform="matrix(0.05,0,0,0.05,54.900000000000006,0)" xlink:href="#bu"/><use transform="matrix(0.05,0,0,0.05,65.85,0)" xlink:href="#bv"/><use transform="matrix(0.05,0,0,0.05,70.85,0)" xlink:href="#bw"/></g><g id="r"><use transform="matrix(0.05,0,0,0.05,0,0)" xlink:href="#aX"/><use transform="matrix(0.05,0,0,0.05,5,0)" xlink:href="#aY"/></g><path d="M101-234c-31-9-42 10-38 44h38v23H63V0H32v-167H5v-23h27c-7-52 17-82 69-68v24" id="bx"/><g id="s"><use transform="matrix(0.05,0,0,0.05,0,0)" xlink:href="#bx"/><use transform="matrix(0.05,0,0,0.05,5,0)" xlink:href="#be"/><use transform="matrix(0.05,0,0,0.05,15,0)" xlink:href="#bp"/><use transform="matrix(0.05,0,0,0.05,18.95,0)" xlink:href="#bb"/><use transform="matrix(0.05,0,0,0.05,27.950000000000003,0)" xlink:href="#bc"/></g><path d="M197 0v-115H63V0H30v-248h33v105h134v-105h34V0h-34" id="by"/><path d="M115-194c55 1 70 41 70 98S169 2 115 4C84 4 66-9 55-30l1 105H24l-1-265h31l2 30c10-21 28-34 59-34zm-8 174c40 0 45-34 45-75s-6-73-45-74c-42 0-51 32-51 76 0 43 10 73 51 73" id="bz"/><g id="t"><use transform="matrix(0.05,0,0,0.05,0,0)" xlink:href="#bh"/><use transform="matrix(0.05,0,0,0.05,14.950000000000001,0)" xlink:href="#bn"/><use transform="matrix(0.05,0,0,0.05,18.900000000000002,0)" xlink:href="#bk"/><use transform="matrix(0.05,0,0,0.05,28.900000000000002,0)" xlink:href="#by"/><use transform="matrix(0.05,0,0,0.05,41.85,0)" xlink:href="#bc"/><use transform="matrix(0.05,0,0,0.05,51.85,0)" xlink:href="#be"/><use transform="matrix(0.05,0,0,0.05,61.85,0)" xlink:href="#bz"/></g><path d="M87 75C49 33 22-17 22-94c0-76 28-126 65-167h31c-38 41-64 92-64 168S80 34 118 75H87" id="bA"/><path d="M30-248c87 1 191-15 191 75 0 78-77 80-158 76V0H30v-248zm33 125c57 0 124 11 124-50 0-59-68-47-124-48v98" id="bB"/><path d="M140-251c81 0 123 46 123 126C263-53 228-8 163 1c7 30 30 48 69 40v23c-55 16-95-15-103-61C56-3 17-48 17-125c0-80 42-126 123-126zm0 227c63 0 89-41 89-101s-29-99-89-99c-61 0-89 39-89 99S79-25 140-24" id="bC"/><path d="M33-261c38 41 65 92 65 168S71 34 33 75H2C39 34 66-17 66-93S39-220 2-261h31" id="bD"/><g id="u"><use transform="matrix(0.05,0,0,0.05,0,0)" xlink:href="#bA"/><use transform="matrix(0.05,0,0,0.05,5.95,0)" xlink:href="#bB"/><use transform="matrix(0.05,0,0,0.05,17.95,0)" xlink:href="#aZ"/><use transform="matrix(0.05,0,0,0.05,23.9,0)" xlink:href="#bn"/><use transform="matrix(0.05,0,0,0.05,27.849999999999994,0)" xlink:href="#aY"/><use transform="matrix(0.05,0,0,0.05,37.849999999999994,0)" xlink:href="#aZ"/><use transform="matrix(0.05,0,0,0.05,43.8,0)" xlink:href="#bn"/><use transform="matrix(0.05,0,0,0.05,47.75,0)" xlink:href="#aX"/><use transform="matrix(0.05,0,0,0.05,52.75,0)" xlink:href="#bg"/><use transform="matrix(0.05,0,0,0.05,61.75,0)" xlink:href="#bC"/><use transform="matrix(0.05,0,0,0.05,75.75,0)" xlink:href="#bj"/><use transform="matrix(0.05,0,0,0.05,85.75,0)" xlink:href="#bc"/><use transform="matrix(0.05,0,0,0.05,95.75,0)" xlink:href="#bj"/><use transform="matrix(0.05,0,0,0.05,105.75,0)" xlink:href="#bc"/><use transform="matrix(0.05,0,0,0.05,115.75,0)" xlink:href="#bD"/></g><path d="M266 0h-40l-56-210L115 0H75L2-248h35L96-30l15-64 43-154h32l59 218 59-218h35" id="bE"/><path d="M177-190C167-65 218 103 67 71c-23-6-38-20-44-43l32-5c15 47 100 32 89-28v-30C133-14 115 1 83 1 29 1 15-40 15-95c0-56 16-97 71-98 29-1 48 16 59 35 1-10 0-23 2-32h30zM94-22c36 0 50-32 50-73 0-42-14-75-50-75-39 0-46 34-46 75s6 73 46 73" id="bF"/><path d="M106-169C34-169 62-67 57 0H25v-261h32l-1 103c12-21 28-36 61-36 89 0 53 116 60 194h-32v-121c2-32-8-49-39-48" id="bG"/><g id="v"><use transform="matrix(0.05,0,0,0.05,0,0)" xlink:href="#bh"/><use transform="matrix(0.05,0,0,0.05,14.950000000000001,0)" xlink:href="#bn"/><use transform="matrix(0.05,0,0,0.05,18.900000000000002,0)" xlink:href="#bk"/><use transform="matrix(0.05,0,0,0.05,28.900000000000002,0)" xlink:href="#bn"/><use transform="matrix(0.05,0,0,0.05,32.85,0)" xlink:href="#bh"/><use transform="matrix(0.05,0,0,0.05,47.800000000000004,0)" xlink:href="#bj"/><use transform="matrix(0.05,0,0,0.05,57.800000000000004,0)" xlink:href="#bh"/><use transform="matrix(0.05,0,0,0.05,72.75,0)" xlink:href="#bE"/><use transform="matrix(0.05,0,0,0.05,89.35000000000001,0)" xlink:href="#bc"/><use transform="matrix(0.05,0,0,0.05,99.35000000000001,0)" xlink:href="#bn"/><use transform="matrix(0.05,0,0,0.05,103.30000000000001,0)" xlink:href="#bF"/><use transform="matrix(0.05,0,0,0.05,113.30000000000001,0)" xlink:href="#bG"/><use transform="matrix(0.05,0,0,0.05,123.30000000000001,0)" xlink:href="#aX"/><use transform="matrix(0.05,0,0,0.05,128.3,0)" xlink:href="#bv"/><use transform="matrix(0.05,0,0,0.05,133.3,0)" xlink:href="#bw"/></g><g id="w"><use transform="matrix(0.05,0,0,0.05,0,0)" xlink:href="#aX"/><use transform="matrix(0.05,0,0,0.05,5,0)" xlink:href="#aY"/></g><g id="x"><use transform="matrix(0.05,0,0,0.05,0,0)" xlink:href="#bn"/><use transform="matrix(0.05,0,0,0.05,3.95,0)" xlink:href="#bk"/><use transform="matrix(0.05,0,0,0.05,13.949999999999998,0)" xlink:href="#bx"/><use transform="matrix(0.05,0,0,0.05,18.95,0)" xlink:href="#bn"/><use transform="matrix(0.05,0,0,0.05,22.9,0)" xlink:href="#bk"/><use transform="matrix(0.05,0,0,0.05,32.9,0)" xlink:href="#bn"/><use transform="matrix(0.05,0,0,0.05,36.85,0)" xlink:href="#aX"/><use transform="matrix(0.05,0,0,0.05,41.85,0)" xlink:href="#bg"/></g><g id="y"><use transform="matrix(0.05,0,0,0.05,0,0)" xlink:href="#bz"/><use transform="matrix(0.05,0,0,0.05,10,0)" xlink:href="#be"/><use transform="matrix(0.05,0,0,0.05,20,0)" xlink:href="#aZ"/><use transform="matrix(0.05,0,0,0.05,25.950000000000003,0)" xlink:href="#bc"/><use transform="matrix(0.05,0,0,0.05,35.95,0)" xlink:href="#bk"/><use transform="matrix(0.05,0,0,0.05,45.95,0)" xlink:href="#aX"/><use transform="matrix(0.05,0,0,0.05,50.95,0)" xlink:href="#bs"/><use transform="matrix(0.05,0,0,0.05,61.95,0)" xlink:href="#bc"/><use transform="matrix(0.05,0,0,0.05,71.95,0)" xlink:href="#aZ"/><use transform="matrix(0.05,0,0,0.05,77.9,0)" xlink:href="#aX"/><use transform="matrix(0.05,0,0,0.05,82.9,0)" xlink:href="#bc"/><use transform="matrix(0.05,0,0,0.05,92.9,0)" xlink:href="#bm"/><use transform="matrix(0.05,0,0,0.05,101.9,0)" xlink:href="#bv"/><use transform="matrix(0.05,0,0,0.05,106.9,0)" xlink:href="#bw"/></g><path d="M16-82v-28h88v28H16" id="bH"/><path d="M27 0v-27h64v-190l-56 39v-29l58-41h29v221h61V0H27" id="bI"/><g id="z"><use transform="matrix(0.05,0,0,0.05,0,0)" xlink:href="#bH"/><use transform="matrix(0.05,0,0,0.05,5.95,0)" xlink:href="#bI"/></g><g id="A"><use transform="matrix(0.05,0,0,0.05,0,0)" xlink:href="#bf"/><use transform="matrix(0.05,0,0,0.05,12,0)" xlink:href="#bc"/><use transform="matrix(0.05,0,0,0.05,22,0)" xlink:href="#aX"/></g><path d="M101-251c68 0 85 55 85 127S166 4 100 4C33 4 14-52 14-124c0-73 17-127 87-127zm-1 229c47 0 54-49 54-102s-4-102-53-102c-51 0-55 48-55 102 0 53 5 102 54 102" id="bJ"/><g id="B"><use transform="matrix(0.05,0,0,0.05,0,0)" xlink:href="#bh"/><use transform="matrix(0.05,0,0,0.05,14.950000000000001,0)" xlink:href="#bn"/><use transform="matrix(0.05,0,0,0.05,18.900000000000002,0)" xlink:href="#bk"/><use transform="matrix(0.05,0,0,0.05,28.900000000000002,0)" xlink:href="#bn"/><use transform="matrix(0.05,0,0,0.05,32.85,0)" xlink:href="#bh"/><use transform="matrix(0.05,0,0,0.05,47.800000000000004,0)" xlink:href="#bj"/><use transform="matrix(0.05,0,0,0.05,57.800000000000004,0)" xlink:href="#bh"/><use transform="matrix(0.05,0,0,0.05,72.75,0)" xlink:href="#bE"/><use transform="matrix(0.05,0,0,0.05,89.35000000000001,0)" xlink:href="#bc"/><use transform="matrix(0.05,0,0,0.05,99.35000000000001,0)" xlink:href="#bn"/><use transform="matrix(0.05,0,0,0.05,103.30000000000001,0)" xlink:href="#bF"/><use transform="matrix(0.05,0,0,0.05,113.30000000000001,0)" xlink:href="#bG"/><use transform="matrix(0.05,0,0,0.05,123.30000000000001,0)" xlink:href="#aX"/><use transform="matrix(0.05,0,0,0.05,128.3,0)" xlink:href="#bv"/><use transform="matrix(0.05,0,0,0.05,133.3,0)" xlink:href="#bJ"/><use transform="matrix(0.05,0,0,0.05,143.3,0)" xlink:href="#bw"/></g><use transform="matrix(0.05,0,0,0.05,0,0)" xlink:href="#bJ" id="C"/><g id="D"><use transform="matrix(0.05,0,0,0.05,0,0)" xlink:href="#bA"/><use transform="matrix(0.05,0,0,0.05,5.95,0)" xlink:href="#bb"/><use transform="matrix(0.05,0,0,0.05,14.949999999999998,0)" xlink:href="#aX"/><use transform="matrix(0.05,0,0,0.05,19.95,0)" xlink:href="#be"/><use transform="matrix(0.05,0,0,0.05,29.950000000000003,0)" xlink:href="#aZ"/><use transform="matrix(0.05,0,0,0.05,35.9,0)" xlink:href="#aX"/><use transform="matrix(0.05,0,0,0.05,40.9,0)" xlink:href="#bn"/><use transform="matrix(0.05,0,0,0.05,44.85,0)" xlink:href="#bk"/><use transform="matrix(0.05,0,0,0.05,54.85,0)" xlink:href="#bF"/></g><path d="M108 0H70L1-190h34L89-25l56-165h34" id="bK"/><g id="E"><use transform="matrix(0.05,0,0,0.05,0,0)" xlink:href="#bK"/><use transform="matrix(0.05,0,0,0.05,9,0)" xlink:href="#bc"/><use transform="matrix(0.05,0,0,0.05,19,0)" xlink:href="#aZ"/><use transform="matrix(0.05,0,0,0.05,24.95,0)" xlink:href="#aX"/><use transform="matrix(0.05,0,0,0.05,29.950000000000003,0)" xlink:href="#bc"/><use transform="matrix(0.05,0,0,0.05,39.95,0)" xlink:href="#bm"/><use transform="matrix(0.05,0,0,0.05,48.95,0)" xlink:href="#bD"/></g><g id="F"><use transform="matrix(0.05,0,0,0.05,0,0)" xlink:href="#aV"/><use transform="matrix(0.05,0,0,0.05,12,0)" xlink:href="#bl"/><use transform="matrix(0.05,0,0,0.05,22,0)" xlink:href="#bl"/></g><path d="M68-38c1 34 0 65-14 84H32c9-13 17-26 17-46H33v-38h35" id="bL"/><g id="G"><use transform="matrix(0.05,0,0,0.05,0,0)" xlink:href="#bq"/><use transform="matrix(0.05,0,0,0.05,12,0)" xlink:href="#bl"/><use transform="matrix(0.05,0,0,0.05,22,0)" xlink:href="#bF"/><use transform="matrix(0.05,0,0,0.05,32,0)" xlink:href="#bc"/><use transform="matrix(0.05,0,0,0.05,42,0)" xlink:href="#bA"/><use transform="matrix(0.05,0,0,0.05,47.95,0)" xlink:href="#bH"/><use transform="matrix(0.05,0,0,0.05,53.900000000000006,0)" xlink:href="#bI"/><use transform="matrix(0.05,0,0,0.05,63.900000000000006,0)" xlink:href="#bL"/></g><g id="H"><use transform="matrix(0.05,0,0,0.05,0,0)" xlink:href="#bJ"/><use transform="matrix(0.05,0,0,0.05,10,0)" xlink:href="#bL"/></g><g id="I"><use transform="matrix(0.05,0,0,0.05,0,0)" xlink:href="#bJ"/><use transform="matrix(0.05,0,0,0.05,10,0)" xlink:href="#bD"/></g><g id="J"><use transform="matrix(0.05,0,0,0.05,0,0)" xlink:href="#bh"/><use transform="matrix(0.05,0,0,0.05,14.950000000000001,0)" xlink:href="#bn"/><use transform="matrix(0.05,0,0,0.05,18.900000000000002,0)" xlink:href="#bk"/><use transform="matrix(0.05,0,0,0.05,28.900000000000002,0)" xlink:href="#by"/><use transform="matrix(0.05,0,0,0.05,41.85,0)" xlink:href="#bc"/><use transform="matrix(0.05,0,0,0.05,51.85,0)" xlink:href="#be"/><use transform="matrix(0.05,0,0,0.05,61.85,0)" xlink:href="#bz"/></g><g id="K"><use transform="matrix(0.05,0,0,0.05,0,0)" xlink:href="#bE"/><use transform="matrix(0.05,0,0,0.05,16.95,0)" xlink:href="#bG"/><use transform="matrix(0.05,0,0,0.05,26.950000000000003,0)" xlink:href="#bn"/><use transform="matrix(0.05,0,0,0.05,30.899999999999995,0)" xlink:href="#bp"/><use transform="matrix(0.05,0,0,0.05,34.85,0)" xlink:href="#bc"/></g><g id="L"><use transform="matrix(0.05,0,0,0.05,0,0)" xlink:href="#bh"/><use transform="matrix(0.05,0,0,0.05,14.950000000000001,0)" xlink:href="#bn"/><use transform="matrix(0.05,0,0,0.05,18.900000000000002,0)" xlink:href="#bk"/><use transform="matrix(0.05,0,0,0.05,28.900000000000002,0)" xlink:href="#by"/><use transform="matrix(0.05,0,0,0.05,41.85,0)" xlink:href="#bc"/><use transform="matrix(0.05,0,0,0.05,51.85,0)" xlink:href="#be"/><use transform="matrix(0.05,0,0,0.05,61.85,0)" xlink:href="#bz"/></g><g id="M"><use transform="matrix(0.05,0,0,0.05,0,0)" xlink:href="#bn"/><use transform="matrix(0.05,0,0,0.05,3.95,0)" xlink:href="#bb"/></g><g id="N"><use transform="matrix(0.05,0,0,0.05,0,0)" xlink:href="#bk"/><use transform="matrix(0.05,0,0,0.05,10,0)" xlink:href="#aY"/><use transform="matrix(0.05,0,0,0.05,20,0)" xlink:href="#aX"/></g><g id="O"><use transform="matrix(0.05,0,0,0.05,0,0)" xlink:href="#bc"/><use transform="matrix(0.05,0,0,0.05,10,0)" xlink:href="#bh"/><use transform="matrix(0.05,0,0,0.05,24.950000000000003,0)" xlink:href="#bz"/><use transform="matrix(0.05,0,0,0.05,34.95,0)" xlink:href="#aX"/><use transform="matrix(0.05,0,0,0.05,39.95,0)" xlink:href="#bg"/></g><path d="M30-248c118-7 216 8 213 122C240-48 200 0 122 0H30v-248zM63-27c89 8 146-16 146-99s-60-101-146-95v194" id="bM"/><path d="M145-31C134-9 116 4 85 4 32 4 16-35 15-94c0-59 17-99 70-100 32-1 48 14 60 33 0-11-1-24 2-32h30l-1 268h-32zM93-21c41 0 51-33 51-76s-8-73-50-73c-40 0-46 35-46 75s5 74 45 74" id="bN"/><g id="P"><use transform="matrix(0.05,0,0,0.05,0,0)" xlink:href="#bM"/><use transform="matrix(0.05,0,0,0.05,12.950000000000001,0)" xlink:href="#bc"/><use transform="matrix(0.05,0,0,0.05,22.950000000000003,0)" xlink:href="#bN"/><use transform="matrix(0.05,0,0,0.05,32.95,0)" xlink:href="#bj"/><use transform="matrix(0.05,0,0,0.05,42.95,0)" xlink:href="#bc"/><use transform="matrix(0.05,0,0,0.05,52.95,0)" xlink:href="#bj"/><use transform="matrix(0.05,0,0,0.05,62.95,0)" xlink:href="#bc"/></g><g id="Q"><use transform="matrix(0.05,0,0,0.05,0,0)" xlink:href="#aW"/><use transform="matrix(0.05,0,0,0.05,9,0)" xlink:href="#bj"/><use transform="matrix(0.05,0,0,0.05,19,0)" xlink:href="#aZ"/><use transform="matrix(0.05,0,0,0.05,24.95,0)" xlink:href="#aZ"/><use transform="matrix(0.05,0,0,0.05,30.899999999999995,0)" xlink:href="#bc"/><use transform="matrix(0.05,0,0,0.05,40.9,0)" xlink:href="#bk"/><use transform="matrix(0.05,0,0,0.05,50.9,0)" xlink:href="#aX"/><use transform="matrix(0.05,0,0,0.05,55.900000000000006,0)" xlink:href="#bq"/><use transform="matrix(0.05,0,0,0.05,67.9,0)" xlink:href="#bl"/><use transform="matrix(0.05,0,0,0.05,77.9,0)" xlink:href="#bF"/><use transform="matrix(0.05,0,0,0.05,87.9,0)" xlink:href="#bc"/></g><g id="R"><use transform="matrix(0.05,0,0,0.05,0,0)" xlink:href="#bx"/><use transform="matrix(0.05,0,0,0.05,5,0)" xlink:href="#aZ"/><use transform="matrix(0.05,0,0,0.05,10.95,0)" xlink:href="#aY"/><use transform="matrix(0.05,0,0,0.05,20.95,0)" xlink:href="#bh"/></g><g id="S"><use transform="matrix(0.05,0,0,0.05,0,0)" xlink:href="#aW"/><use transform="matrix(0.05,0,0,0.05,9,0)" xlink:href="#bj"/><use transform="matrix(0.05,0,0,0.05,19,0)" xlink:href="#aZ"/><use transform="matrix(0.05,0,0,0.05,24.95,0)" xlink:href="#aZ"/><use transform="matrix(0.05,0,0,0.05,30.899999999999995,0)" xlink:href="#bc"/><use transform="matrix(0.05,0,0,0.05,40.9,0)" xlink:href="#bk"/><use transform="matrix(0.05,0,0,0.05,50.9,0)" xlink:href="#aX"/><use transform="matrix(0.05,0,0,0.05,55.900000000000006,0)" xlink:href="#bs"/><use transform="matrix(0.05,0,0,0.05,66.9,0)" xlink:href="#bc"/><use transform="matrix(0.05,0,0,0.05,76.9,0)" xlink:href="#aZ"/><use transform="matrix(0.05,0,0,0.05,82.85000000000001,0)" xlink:href="#aX"/><use transform="matrix(0.05,0,0,0.05,87.85000000000001,0)" xlink:href="#bc"/><use transform="matrix(0.05,0,0,0.05,97.85000000000001,0)" xlink:href="#bm"/></g><path d="M33 0v-38h34V0H33" id="bO"/><g id="T"><use transform="matrix(0.05,0,0,0.05,0,0)" xlink:href="#aW"/><use transform="matrix(0.05,0,0,0.05,9,0)" xlink:href="#bj"/><use transform="matrix(0.05,0,0,0.05,19,0)" xlink:href="#aZ"/><use transform="matrix(0.05,0,0,0.05,24.95,0)" xlink:href="#aZ"/><use transform="matrix(0.05,0,0,0.05,30.899999999999995,0)" xlink:href="#bc"/><use transform="matrix(0.05,0,0,0.05,40.9,0)" xlink:href="#bk"/><use transform="matrix(0.05,0,0,0.05,50.9,0)" xlink:href="#aX"/><use transform="matrix(0.05,0,0,0.05,55.900000000000006,0)" xlink:href="#bq"/><use transform="matrix(0.05,0,0,0.05,67.9,0)" xlink:href="#bl"/><use transform="matrix(0.05,0,0,0.05,77.9,0)" xlink:href="#bF"/><use transform="matrix(0.05,0,0,0.05,87.9,0)" xlink:href="#bc"/><use transform="matrix(0.05,0,0,0.05,97.9,0)" xlink:href="#bO"/><use transform="matrix(0.05,0,0,0.05,102.9,0)" xlink:href="#bc"/><use transform="matrix(0.05,0,0,0.05,112.9,0)" xlink:href="#bk"/><use transform="matrix(0.05,0,0,0.05,122.9,0)" xlink:href="#bl"/><use transform="matrix(0.05,0,0,0.05,132.9,0)" xlink:href="#bs"/><use transform="matrix(0.05,0,0,0.05,143.9,0)" xlink:href="#bc"/><use transform="matrix(0.05,0,0,0.05,153.9,0)" xlink:href="#aZ"/><use transform="matrix(0.05,0,0,0.05,159.85,0)" xlink:href="#aX"/><use transform="matrix(0.05,0,0,0.05,164.85,0)" xlink:href="#bc"/><use transform="matrix(0.05,0,0,0.05,174.85,0)" xlink:href="#bm"/></g><g id="U"><use transform="matrix(0.05,0,0,0.05,0,0)" xlink:href="#bo"/><use transform="matrix(0.05,0,0,0.05,5,0)" xlink:href="#bx"/></g><g id="V"><use transform="matrix(0.05,0,0,0.05,0,0)" xlink:href="#bn"/><use transform="matrix(0.05,0,0,0.05,3.95,0)" xlink:href="#bb"/><use transform="matrix(0.05,0,0,0.05,12.949999999999998,0)" xlink:href="#bo"/><use transform="matrix(0.05,0,0,0.05,17.95,0)" xlink:href="#bk"/><use transform="matrix(0.05,0,0,0.05,27.950000000000003,0)" xlink:href="#bt"/><use transform="matrix(0.05,0,0,0.05,42.9,0)" xlink:href="#bf"/><use transform="matrix(0.05,0,0,0.05,54.900000000000006,0)" xlink:href="#bu"/><use transform="matrix(0.05,0,0,0.05,65.85,0)" xlink:href="#bv"/><use transform="matrix(0.05,0,0,0.05,70.85,0)" xlink:href="#aW"/><use transform="matrix(0.05,0,0,0.05,79.85,0)" xlink:href="#bj"/><use transform="matrix(0.05,0,0,0.05,89.85,0)" xlink:href="#aZ"/><use transform="matrix(0.05,0,0,0.05,95.8,0)" xlink:href="#aZ"/><use transform="matrix(0.05,0,0,0.05,101.75,0)" xlink:href="#bc"/><use transform="matrix(0.05,0,0,0.05,111.75,0)" xlink:href="#bk"/><use transform="matrix(0.05,0,0,0.05,121.75,0)" xlink:href="#aX"/><use transform="matrix(0.05,0,0,0.05,126.75,0)" xlink:href="#bs"/><use transform="matrix(0.05,0,0,0.05,137.75,0)" xlink:href="#bc"/><use transform="matrix(0.05,0,0,0.05,147.75,0)" xlink:href="#aZ"/><use transform="matrix(0.05,0,0,0.05,153.7,0)" xlink:href="#aX"/><use transform="matrix(0.05,0,0,0.05,158.7,0)" xlink:href="#bc"/><use transform="matrix(0.05,0,0,0.05,168.7,0)" xlink:href="#bm"/><use transform="matrix(0.05,0,0,0.05,177.7,0)" xlink:href="#bw"/></g><g id="W"><use transform="matrix(0.05,0,0,0.05,0,0)" xlink:href="#bn"/><use transform="matrix(0.05,0,0,0.05,3.95,0)" xlink:href="#bb"/></g><g id="X"><use transform="matrix(0.05,0,0,0.05,0,0)" xlink:href="#aX"/><use transform="matrix(0.05,0,0,0.05,5,0)" xlink:href="#aZ"/><use transform="matrix(0.05,0,0,0.05,10.95,0)" xlink:href="#bj"/><use transform="matrix(0.05,0,0,0.05,20.95,0)" xlink:href="#bc"/></g><g id="Y"><use transform="matrix(0.05,0,0,0.05,0,0)" xlink:href="#bd"/><use transform="matrix(0.05,0,0,0.05,12.950000000000001,0)" xlink:href="#aY"/><use transform="matrix(0.05,0,0,0.05,22.950000000000003,0)" xlink:href="#bk"/><use transform="matrix(0.05,0,0,0.05,32.95,0)" xlink:href="#aX"/><use transform="matrix(0.05,0,0,0.05,37.95,0)" xlink:href="#bn"/><use transform="matrix(0.05,0,0,0.05,41.900000000000006,0)" xlink:href="#bk"/><use transform="matrix(0.05,0,0,0.05,51.900000000000006,0)" xlink:href="#bj"/><use transform="matrix(0.05,0,0,0.05,61.900000000000006,0)" xlink:href="#bc"/></g><path d="M63-220v92h138v28H63V0H30v-248h175v28H63" id="bP"/><g id="Z"><use transform="matrix(0.05,0,0,0.05,0,0)" xlink:href="#bP"/><use transform="matrix(0.05,0,0,0.05,10.950000000000001,0)" xlink:href="#aY"/><use transform="matrix(0.05,0,0,0.05,20.950000000000003,0)" xlink:href="#aZ"/></g><g id="aa"><use transform="matrix(0.05,0,0,0.05,0,0)" xlink:href="#bc"/><use transform="matrix(0.05,0,0,0.05,10,0)" xlink:href="#be"/><use transform="matrix(0.05,0,0,0.05,20,0)" xlink:href="#aW"/><use transform="matrix(0.05,0,0,0.05,29,0)" xlink:href="#bG"/></g><path d="M24-231v-30h32v30H24zM-9 49c24 4 33-6 33-30v-209h32V24c2 40-23 58-65 49V49" id="bQ"/><g id="ab"><use transform="matrix(0.05,0,0,0.05,0,0)" xlink:href="#be"/><use transform="matrix(0.05,0,0,0.05,10,0)" xlink:href="#bl"/><use transform="matrix(0.05,0,0,0.05,20,0)" xlink:href="#bQ"/><use transform="matrix(0.05,0,0,0.05,23.95,0)" xlink:href="#be"/><use transform="matrix(0.05,0,0,0.05,33.95,0)" xlink:href="#aW"/><use transform="matrix(0.05,0,0,0.05,42.95,0)" xlink:href="#bc"/><use transform="matrix(0.05,0,0,0.05,52.95,0)" xlink:href="#bk"/><use transform="matrix(0.05,0,0,0.05,62.95,0)" xlink:href="#aX"/><use transform="matrix(0.05,0,0,0.05,67.95,0)" xlink:href="#bq"/><use transform="matrix(0.05,0,0,0.05,79.95,0)" xlink:href="#bl"/><use transform="matrix(0.05,0,0,0.05,89.95,0)" xlink:href="#bF"/><use transform="matrix(0.05,0,0,0.05,99.95,0)" xlink:href="#bc"/></g><g id="ac"><use transform="matrix(0.05,0,0,0.05,0,0)" xlink:href="#bn"/><use transform="matrix(0.05,0,0,0.05,3.95,0)" xlink:href="#bk"/></g><path d="M30 0v-248h33v221h125V0H30" id="bR"/><g id="ad"><use transform="matrix(0.05,0,0,0.05,0,0)" xlink:href="#be"/><use transform="matrix(0.05,0,0,0.05,10,0)" xlink:href="#bl"/><use transform="matrix(0.05,0,0,0.05,20,0)" xlink:href="#bQ"/><use transform="matrix(0.05,0,0,0.05,23.95,0)" xlink:href="#be"/><use transform="matrix(0.05,0,0,0.05,33.95,0)" xlink:href="#aW"/><use transform="matrix(0.05,0,0,0.05,42.95,0)" xlink:href="#bc"/><use transform="matrix(0.05,0,0,0.05,52.95,0)" xlink:href="#bk"/><use transform="matrix(0.05,0,0,0.05,62.95,0)" xlink:href="#aW"/><use transform="matrix(0.05,0,0,0.05,71.95,0)" xlink:href="#bg"/><use transform="matrix(0.05,0,0,0.05,80.95,0)" xlink:href="#bR"/><use transform="matrix(0.05,0,0,0.05,90.95,0)" xlink:href="#bn"/><use transform="matrix(0.05,0,0,0.05,94.9,0)" xlink:href="#bb"/><use transform="matrix(0.05,0,0,0.05,103.9,0)" xlink:href="#aX"/><use transform="matrix(0.05,0,0,0.05,108.9,0)" xlink:href="#bv"/><use transform="matrix(0.05,0,0,0.05,113.9,0)" xlink:href="#aW"/><use transform="matrix(0.05,0,0,0.05,122.9,0)" xlink:href="#bj"/><use transform="matrix(0.05,0,0,0.05,132.9,0)" xlink:href="#aZ"/><use transform="matrix(0.05,0,0,0.05,138.85,0)" xlink:href="#aZ"/><use transform="matrix(0.05,0,0,0.05,144.79999999999998,0)" xlink:href="#bc"/><use transform="matrix(0.05,0,0,0.05,154.79999999999998,0)" xlink:href="#bk"/><use transform="matrix(0.05,0,0,0.05,164.79999999999998,0)" xlink:href="#aX"/><use transform="matrix(0.05,0,0,0.05,169.79999999999998,0)" xlink:href="#bs"/><use transform="matrix(0.05,0,0,0.05,180.79999999999998,0)" xlink:href="#bc"/><use transform="matrix(0.05,0,0,0.05,190.79999999999998,0)" xlink:href="#aZ"/><use transform="matrix(0.05,0,0,0.05,196.74999999999997,0)" xlink:href="#aX"/><use transform="matrix(0.05,0,0,0.05,201.74999999999997,0)" xlink:href="#bc"/><use transform="matrix(0.05,0,0,0.05,211.74999999999997,0)" xlink:href="#bm"/><use transform="matrix(0.05,0,0,0.05,220.74999999999997,0)" xlink:href="#bw"/></g><g id="ae"><use transform="matrix(0.05,0,0,0.05,0,0)" xlink:href="#bf"/><use transform="matrix(0.05,0,0,0.05,12,0)" xlink:href="#bc"/><use transform="matrix(0.05,0,0,0.05,22,0)" xlink:href="#aX"/></g><g id="af"><use transform="matrix(0.05,0,0,0.05,0,0)" xlink:href="#be"/><use transform="matrix(0.05,0,0,0.05,10,0)" xlink:href="#bl"/><use transform="matrix(0.05,0,0,0.05,20,0)" xlink:href="#bQ"/><use transform="matrix(0.05,0,0,0.05,23.95,0)" xlink:href="#be"/><use transform="matrix(0.05,0,0,0.05,33.95,0)" xlink:href="#aW"/><use transform="matrix(0.05,0,0,0.05,42.95,0)" xlink:href="#bc"/><use transform="matrix(0.05,0,0,0.05,52.95,0)" xlink:href="#bk"/><use transform="matrix(0.05,0,0,0.05,62.95,0)" xlink:href="#aX"/><use transform="matrix(0.05,0,0,0.05,67.95,0)" xlink:href="#bs"/><use transform="matrix(0.05,0,0,0.05,78.95,0)" xlink:href="#bc"/><use transform="matrix(0.05,0,0,0.05,88.95,0)" xlink:href="#aZ"/><use transform="matrix(0.05,0,0,0.05,94.9,0)" xlink:href="#aX"/><use transform="matrix(0.05,0,0,0.05,99.9,0)" xlink:href="#bc"/><use transform="matrix(0.05,0,0,0.05,109.9,0)" xlink:href="#bm"/></g><g id="ag"><use transform="matrix(0.05,0,0,0.05,0,0)" xlink:href="#be"/><use transform="matrix(0.05,0,0,0.05,10,0)" xlink:href="#bl"/><use transform="matrix(0.05,0,0,0.05,20,0)" xlink:href="#bQ"/><use transform="matrix(0.05,0,0,0.05,23.95,0)" xlink:href="#be"/><use transform="matrix(0.05,0,0,0.05,33.95,0)" xlink:href="#aW"/><use transform="matrix(0.05,0,0,0.05,42.95,0)" xlink:href="#bc"/><use transform="matrix(0.05,0,0,0.05,52.95,0)" xlink:href="#bk"/><use transform="matrix(0.05,0,0,0.05,62.95,0)" xlink:href="#aX"/><use transform="matrix(0.05,0,0,0.05,67.95,0)" xlink:href="#bq"/><use transform="matrix(0.05,0,0,0.05,79.95,0)" xlink:href="#bl"/><use transform="matrix(0.05,0,0,0.05,89.95,0)" xlink:href="#bF"/><use transform="matrix(0.05,0,0,0.05,99.95,0)" xlink:href="#bc"/><use transform="matrix(0.05,0,0,0.05,109.95,0)" xlink:href="#bO"/><use transform="matrix(0.05,0,0,0.05,114.95,0)" xlink:href="#bc"/><use transform="matrix(0.05,0,0,0.05,124.95,0)" xlink:href="#bk"/><use transform="matrix(0.05,0,0,0.05,134.95,0)" xlink:href="#bl"/><use transform="matrix(0.05,0,0,0.05,144.95,0)" xlink:href="#bs"/><use transform="matrix(0.05,0,0,0.05,155.95,0)" xlink:href="#bc"/><use transform="matrix(0.05,0,0,0.05,165.95,0)" xlink:href="#aZ"/><use transform="matrix(0.05,0,0,0.05,171.89999999999998,0)" xlink:href="#aX"/><use transform="matrix(0.05,0,0,0.05,176.89999999999998,0)" xlink:href="#bc"/><use transform="matrix(0.05,0,0,0.05,186.89999999999998,0)" xlink:href="#bm"/></g><g id="ah"><use transform="matrix(0.05,0,0,0.05,0,0)" xlink:href="#bc"/><use transform="matrix(0.05,0,0,0.05,10,0)" xlink:href="#bl"/><use transform="matrix(0.05,0,0,0.05,20,0)" xlink:href="#bF"/><use transform="matrix(0.05,0,0,0.05,30,0)" xlink:href="#bc"/><use transform="matrix(0.05,0,0,0.05,40,0)" xlink:href="#bE"/><use transform="matrix(0.05,0,0,0.05,56.599999999999994,0)" xlink:href="#bc"/><use transform="matrix(0.05,0,0,0.05,66.6,0)" xlink:href="#bn"/><use transform="matrix(0.05,0,0,0.05,70.55,0)" xlink:href="#bF"/><use transform="matrix(0.05,0,0,0.05,80.55,0)" xlink:href="#bG"/><use transform="matrix(0.05,0,0,0.05,90.55,0)" xlink:href="#aX"/></g><path d="M206 0h-36l-40-164L89 0H53L-1-190h32L70-26l43-164h34l41 164 42-164h31" id="bS"/><g id="ai"><use transform="matrix(0.05,0,0,0.05,0,0)" xlink:href="#be"/><use transform="matrix(0.05,0,0,0.05,10,0)" xlink:href="#bl"/><use transform="matrix(0.05,0,0,0.05,20,0)" xlink:href="#bQ"/><use transform="matrix(0.05,0,0,0.05,23.95,0)" xlink:href="#be"/><use transform="matrix(0.05,0,0,0.05,33.95,0)" xlink:href="#aW"/><use transform="matrix(0.05,0,0,0.05,42.95,0)" xlink:href="#bc"/><use transform="matrix(0.05,0,0,0.05,52.95,0)" xlink:href="#bk"/><use transform="matrix(0.05,0,0,0.05,62.95,0)" xlink:href="#aX"/><use transform="matrix(0.05,0,0,0.05,67.95,0)" xlink:href="#bq"/><use transform="matrix(0.05,0,0,0.05,79.95,0)" xlink:href="#bl"/><use transform="matrix(0.05,0,0,0.05,89.95,0)" xlink:href="#bF"/><use transform="matrix(0.05,0,0,0.05,99.95,0)" xlink:href="#bc"/><use transform="matrix(0.05,0,0,0.05,109.95,0)" xlink:href="#bO"/><use transform="matrix(0.05,0,0,0.05,114.95,0)" xlink:href="#bS"/><use transform="matrix(0.05,0,0,0.05,127.9,0)" xlink:href="#bc"/><use transform="matrix(0.05,0,0,0.05,137.9,0)" xlink:href="#bn"/><use transform="matrix(0.05,0,0,0.05,141.85,0)" xlink:href="#bF"/><use transform="matrix(0.05,0,0,0.05,151.85,0)" xlink:href="#bG"/><use transform="matrix(0.05,0,0,0.05,161.85,0)" xlink:href="#aX"/></g><g id="aj"><use transform="matrix(0.05,0,0,0.05,0,0)" xlink:href="#bn"/><use transform="matrix(0.05,0,0,0.05,3.95,0)" xlink:href="#bb"/><use transform="matrix(0.05,0,0,0.05,12.949999999999998,0)" xlink:href="#bo"/><use transform="matrix(0.05,0,0,0.05,17.95,0)" xlink:href="#bk"/><use transform="matrix(0.05,0,0,0.05,27.950000000000003,0)" xlink:href="#bt"/><use transform="matrix(0.05,0,0,0.05,42.9,0)" xlink:href="#bf"/><use transform="matrix(0.05,0,0,0.05,54.900000000000006,0)" xlink:href="#bu"/><use transform="matrix(0.05,0,0,0.05,65.85,0)" xlink:href="#bv"/><use transform="matrix(0.05,0,0,0.05,70.85,0)" xlink:href="#be"/><use transform="matrix(0.05,0,0,0.05,80.85,0)" xlink:href="#bl"/><use transform="matrix(0.05,0,0,0.05,90.85,0)" xlink:href="#bQ"/><use transform="matrix(0.05,0,0,0.05,94.8,0)" xlink:href="#be"/><use transform="matrix(0.05,0,0,0.05,104.80000000000001,0)" xlink:href="#aW"/><use transform="matrix(0.05,0,0,0.05,113.80000000000001,0)" xlink:href="#bc"/><use transform="matrix(0.05,0,0,0.05,123.80000000000001,0)" xlink:href="#bk"/><use transform="matrix(0.05,0,0,0.05,133.8,0)" xlink:href="#aX"/><use transform="matrix(0.05,0,0,0.05,138.8,0)" xlink:href="#bs"/><use transform="matrix(0.05,0,0,0.05,149.8,0)" xlink:href="#bc"/><use transform="matrix(0.05,0,0,0.05,159.8,0)" xlink:href="#aZ"/><use transform="matrix(0.05,0,0,0.05,165.75,0)" xlink:href="#aX"/><use transform="matrix(0.05,0,0,0.05,170.75,0)" xlink:href="#bc"/><use transform="matrix(0.05,0,0,0.05,180.75,0)" xlink:href="#bm"/><use transform="matrix(0.05,0,0,0.05,189.75,0)" xlink:href="#bw"/></g><g id="ak"><use transform="matrix(0.05,0,0,0.05,0,0)" xlink:href="#bx"/><use transform="matrix(0.05,0,0,0.05,5,0)" xlink:href="#be"/><use transform="matrix(0.05,0,0,0.05,15,0)" xlink:href="#bp"/><use transform="matrix(0.05,0,0,0.05,18.95,0)" xlink:href="#bb"/><use transform="matrix(0.05,0,0,0.05,27.950000000000003,0)" xlink:href="#bc"/></g><g id="al"><use transform="matrix(0.05,0,0,0.05,0,0)" xlink:href="#be"/><use transform="matrix(0.05,0,0,0.05,10,0)" xlink:href="#bk"/><use transform="matrix(0.05,0,0,0.05,20,0)" xlink:href="#bl"/></g><g id="am"><use transform="matrix(0.05,0,0,0.05,0,0)" xlink:href="#bc"/><use transform="matrix(0.05,0,0,0.05,10,0)" xlink:href="#bl"/><use transform="matrix(0.05,0,0,0.05,20,0)" xlink:href="#bF"/><use transform="matrix(0.05,0,0,0.05,30,0)" xlink:href="#bc"/><use transform="matrix(0.05,0,0,0.05,40,0)" xlink:href="#bE"/><use transform="matrix(0.05,0,0,0.05,56.599999999999994,0)" xlink:href="#bc"/><use transform="matrix(0.05,0,0,0.05,66.6,0)" xlink:href="#bn"/><use transform="matrix(0.05,0,0,0.05,70.55,0)" xlink:href="#bF"/><use transform="matrix(0.05,0,0,0.05,80.55,0)" xlink:href="#bG"/><use transform="matrix(0.05,0,0,0.05,90.55,0)" xlink:href="#aX"/></g><path d="M234-2c-28 10-62 0-77-18C117 19 8 12 13-65c3-43 29-61 60-76-25-40-17-114 47-108 35 3 59 15 59 50 0 44-40 53-71 69 14 26 32 50 51 72 14-21 24-43 30-72l26 8c-9 33-21 57-38 82 13 13 33 22 57 15v23zM97-151c25-10 52-18 56-48-1-18-13-29-33-29-42 0-39 50-23 77zM42-66c-3 51 71 58 98 28-20-24-41-51-56-80-23 10-40 24-42 52" id="bT"/><path d="M68-36c1 33-1 63-14 82H32c9-13 17-26 17-46H33v-36h35zM33-154v-36h35v36H33" id="bU"/><g id="an"><use transform="matrix(0.05,0,0,0.05,0,0)" xlink:href="#bT"/><use transform="matrix(0.05,0,0,0.05,12,0)" xlink:href="#bp"/><use transform="matrix(0.05,0,0,0.05,15.949999999999998,0)" xlink:href="#aX"/><use transform="matrix(0.05,0,0,0.05,20.95,0)" xlink:href="#bU"/></g><g id="ao"><use transform="matrix(0.05,0,0,0.05,0,0)" xlink:href="#bh"/><use transform="matrix(0.05,0,0,0.05,14.950000000000001,0)" xlink:href="#bn"/><use transform="matrix(0.05,0,0,0.05,18.900000000000002,0)" xlink:href="#bk"/><use transform="matrix(0.05,0,0,0.05,28.900000000000002,0)" xlink:href="#bn"/><use transform="matrix(0.05,0,0,0.05,32.85,0)" xlink:href="#bh"/><use transform="matrix(0.05,0,0,0.05,47.800000000000004,0)" xlink:href="#bj"/><use transform="matrix(0.05,0,0,0.05,57.800000000000004,0)" xlink:href="#bh"/><use transform="matrix(0.05,0,0,0.05,72.75,0)" xlink:href="#bE"/><use transform="matrix(0.05,0,0,0.05,89.35000000000001,0)" xlink:href="#bc"/><use transform="matrix(0.05,0,0,0.05,99.35000000000001,0)" xlink:href="#bn"/><use transform="matrix(0.05,0,0,0.05,103.30000000000001,0)" xlink:href="#bF"/><use transform="matrix(0.05,0,0,0.05,113.30000000000001,0)" xlink:href="#bG"/><use transform="matrix(0.05,0,0,0.05,123.30000000000001,0)" xlink:href="#aX"/><use transform="matrix(0.05,0,0,0.05,128.3,0)" xlink:href="#bv"/><use transform="matrix(0.05,0,0,0.05,133.3,0)" xlink:href="#be"/><use transform="matrix(0.05,0,0,0.05,143.3,0)" xlink:href="#bl"/><use transform="matrix(0.05,0,0,0.05,153.3,0)" xlink:href="#bQ"/><use transform="matrix(0.05,0,0,0.05,157.25,0)" xlink:href="#be"/><use transform="matrix(0.05,0,0,0.05,167.25,0)" xlink:href="#aW"/><use transform="matrix(0.05,0,0,0.05,176.25,0)" xlink:href="#bc"/><use transform="matrix(0.05,0,0,0.05,186.25,0)" xlink:href="#bk"/><use transform="matrix(0.05,0,0,0.05,196.25,0)" xlink:href="#aX"/><use transform="matrix(0.05,0,0,0.05,201.25,0)" xlink:href="#bs"/><use transform="matrix(0.05,0,0,0.05,212.25,0)" xlink:href="#bc"/><use transform="matrix(0.05,0,0,0.05,222.25,0)" xlink:href="#aZ"/><use transform="matrix(0.05,0,0,0.05,228.19999999999996,0)" xlink:href="#aX"/><use transform="matrix(0.05,0,0,0.05,233.19999999999996,0)" xlink:href="#bc"/><use transform="matrix(0.05,0,0,0.05,243.19999999999996,0)" xlink:href="#bm"/><use transform="matrix(0.05,0,0,0.05,252.19999999999996,0)" xlink:href="#bw"/></g><g id="ap"><use transform="matrix(0.05,0,0,0.05,0,0)" xlink:href="#bh"/><use transform="matrix(0.05,0,0,0.05,14.950000000000001,0)" xlink:href="#bn"/><use transform="matrix(0.05,0,0,0.05,18.900000000000002,0)" xlink:href="#bk"/><use transform="matrix(0.05,0,0,0.05,28.900000000000002,0)" xlink:href="#bn"/><use transform="matrix(0.05,0,0,0.05,32.85,0)" xlink:href="#bh"/><use transform="matrix(0.05,0,0,0.05,47.800000000000004,0)" xlink:href="#bj"/><use transform="matrix(0.05,0,0,0.05,57.800000000000004,0)" xlink:href="#bh"/><use transform="matrix(0.05,0,0,0.05,72.75,0)" xlink:href="#bE"/><use transform="matrix(0.05,0,0,0.05,89.35000000000001,0)" xlink:href="#bc"/><use transform="matrix(0.05,0,0,0.05,99.35000000000001,0)" xlink:href="#bn"/><use transform="matrix(0.05,0,0,0.05,103.30000000000001,0)" xlink:href="#bF"/><use transform="matrix(0.05,0,0,0.05,113.30000000000001,0)" xlink:href="#bG"/><use transform="matrix(0.05,0,0,0.05,123.30000000000001,0)" xlink:href="#aX"/><use transform="matrix(0.05,0,0,0.05,128.3,0)" xlink:href="#bv"/><use transform="matrix(0.05,0,0,0.05,133.3,0)" xlink:href="#be"/><use transform="matrix(0.05,0,0,0.05,143.3,0)" xlink:href="#bl"/><use transform="matrix(0.05,0,0,0.05,153.3,0)" xlink:href="#bQ"/><use transform="matrix(0.05,0,0,0.05,157.25,0)" xlink:href="#be"/><use transform="matrix(0.05,0,0,0.05,167.25,0)" xlink:href="#aW"/><use transform="matrix(0.05,0,0,0.05,176.25,0)" xlink:href="#bc"/><use transform="matrix(0.05,0,0,0.05,186.25,0)" xlink:href="#bk"/><use transform="matrix(0.05,0,0,0.05,196.25,0)" xlink:href="#aX"/><use transform="matrix(0.05,0,0,0.05,201.25,0)" xlink:href="#bs"/><use transform="matrix(0.05,0,0,0.05,212.25,0)" xlink:href="#bc"/><use transform="matrix(0.05,0,0,0.05,222.25,0)" xlink:href="#aZ"/><use transform="matrix(0.05,0,0,0.05,228.19999999999996,0)" xlink:href="#aX"/><use transform="matrix(0.05,0,0,0.05,233.19999999999996,0)" xlink:href="#bc"/><use transform="matrix(0.05,0,0,0.05,243.19999999999996,0)" xlink:href="#bm"/><use transform="matrix(0.05,0,0,0.05,252.19999999999996,0)" xlink:href="#bw"/></g><g id="aq"><use transform="matrix(0.05,0,0,0.05,0,0)" xlink:href="#bc"/><use transform="matrix(0.05,0,0,0.05,10,0)" xlink:href="#bl"/><use transform="matrix(0.05,0,0,0.05,20,0)" xlink:href="#bF"/><use transform="matrix(0.05,0,0,0.05,30,0)" xlink:href="#bc"/><use transform="matrix(0.05,0,0,0.05,40,0)" xlink:href="#bE"/><use transform="matrix(0.05,0,0,0.05,56.599999999999994,0)" xlink:href="#bc"/><use transform="matrix(0.05,0,0,0.05,66.6,0)" xlink:href="#bn"/><use transform="matrix(0.05,0,0,0.05,70.55,0)" xlink:href="#bF"/><use transform="matrix(0.05,0,0,0.05,80.55,0)" xlink:href="#bG"/><use transform="matrix(0.05,0,0,0.05,90.55,0)" xlink:href="#aX"/></g><g id="ar"><use transform="matrix(0.05,0,0,0.05,0,0)" xlink:href="#aV"/><use transform="matrix(0.05,0,0,0.05,12,0)" xlink:href="#bl"/><use transform="matrix(0.05,0,0,0.05,22,0)" xlink:href="#bl"/></g><g id="as"><use transform="matrix(0.05,0,0,0.05,0,0)" xlink:href="#bq"/><use transform="matrix(0.05,0,0,0.05,12,0)" xlink:href="#bl"/><use transform="matrix(0.05,0,0,0.05,22,0)" xlink:href="#bF"/><use transform="matrix(0.05,0,0,0.05,32,0)" xlink:href="#bc"/><use transform="matrix(0.05,0,0,0.05,42,0)" xlink:href="#bA"/><use transform="matrix(0.05,0,0,0.05,47.95,0)" xlink:href="#aW"/><use transform="matrix(0.05,0,0,0.05,56.95,0)" xlink:href="#bj"/><use transform="matrix(0.05,0,0,0.05,66.95,0)" xlink:href="#aZ"/><use transform="matrix(0.05,0,0,0.05,72.9,0)" xlink:href="#aZ"/><use transform="matrix(0.05,0,0,0.05,78.85000000000001,0)" xlink:href="#bc"/><use transform="matrix(0.05,0,0,0.05,88.85000000000001,0)" xlink:href="#bk"/><use transform="matrix(0.05,0,0,0.05,98.85000000000001,0)" xlink:href="#aX"/><use transform="matrix(0.05,0,0,0.05,103.85000000000001,0)" xlink:href="#bs"/><use transform="matrix(0.05,0,0,0.05,114.85000000000001,0)" xlink:href="#bc"/><use transform="matrix(0.05,0,0,0.05,124.85000000000001,0)" xlink:href="#aZ"/><use transform="matrix(0.05,0,0,0.05,130.8,0)" xlink:href="#aX"/><use transform="matrix(0.05,0,0,0.05,135.8,0)" xlink:href="#bc"/><use transform="matrix(0.05,0,0,0.05,145.8,0)" xlink:href="#bm"/><use transform="matrix(0.05,0,0,0.05,154.8,0)" xlink:href="#bL"/></g><g id="at"><use transform="matrix(0.05,0,0,0.05,0,0)" xlink:href="#be"/><use transform="matrix(0.05,0,0,0.05,10,0)" xlink:href="#bl"/><use transform="matrix(0.05,0,0,0.05,20,0)" xlink:href="#bQ"/><use transform="matrix(0.05,0,0,0.05,23.95,0)" xlink:href="#be"/><use transform="matrix(0.05,0,0,0.05,33.95,0)" xlink:href="#aW"/><use transform="matrix(0.05,0,0,0.05,42.95,0)" xlink:href="#bc"/><use transform="matrix(0.05,0,0,0.05,52.95,0)" xlink:href="#bk"/><use transform="matrix(0.05,0,0,0.05,62.95,0)" xlink:href="#aX"/><use transform="matrix(0.05,0,0,0.05,67.95,0)" xlink:href="#bs"/><use transform="matrix(0.05,0,0,0.05,78.95,0)" xlink:href="#bc"/><use transform="matrix(0.05,0,0,0.05,88.95,0)" xlink:href="#aZ"/><use transform="matrix(0.05,0,0,0.05,94.9,0)" xlink:href="#aX"/><use transform="matrix(0.05,0,0,0.05,99.9,0)" xlink:href="#bc"/><use transform="matrix(0.05,0,0,0.05,109.9,0)" xlink:href="#bm"/><use transform="matrix(0.05,0,0,0.05,118.9,0)" xlink:href="#bL"/></g><g id="au"><use transform="matrix(0.05,0,0,0.05,0,0)" xlink:href="#bc"/><use transform="matrix(0.05,0,0,0.05,10,0)" xlink:href="#bl"/><use transform="matrix(0.05,0,0,0.05,20,0)" xlink:href="#bF"/><use transform="matrix(0.05,0,0,0.05,30,0)" xlink:href="#bc"/><use transform="matrix(0.05,0,0,0.05,40,0)" xlink:href="#bE"/><use transform="matrix(0.05,0,0,0.05,56.599999999999994,0)" xlink:href="#bc"/><use transform="matrix(0.05,0,0,0.05,66.6,0)" xlink:href="#bn"/><use transform="matrix(0.05,0,0,0.05,70.55,0)" xlink:href="#bF"/><use transform="matrix(0.05,0,0,0.05,80.55,0)" xlink:href="#bG"/><use transform="matrix(0.05,0,0,0.05,90.55,0)" xlink:href="#aX"/><use transform="matrix(0.05,0,0,0.05,95.55,0)" xlink:href="#bD"/></g><g id="av"><use transform="matrix(0.05,0,0,0.05,0,0)" xlink:href="#bz"/><use transform="matrix(0.05,0,0,0.05,10,0)" xlink:href="#be"/><use transform="matrix(0.05,0,0,0.05,20,0)" xlink:href="#aZ"/><use transform="matrix(0.05,0,0,0.05,25.950000000000003,0)" xlink:href="#bc"/><use transform="matrix(0.05,0,0,0.05,35.95,0)" xlink:href="#bk"/><use transform="matrix(0.05,0,0,0.05,45.95,0)" xlink:href="#aX"/><use transform="matrix(0.05,0,0,0.05,50.95,0)" xlink:href="#bs"/><use transform="matrix(0.05,0,0,0.05,61.95,0)" xlink:href="#bc"/><use transform="matrix(0.05,0,0,0.05,71.95,0)" xlink:href="#aZ"/><use transform="matrix(0.05,0,0,0.05,77.9,0)" xlink:href="#aX"/><use transform="matrix(0.05,0,0,0.05,82.9,0)" xlink:href="#bc"/><use transform="matrix(0.05,0,0,0.05,92.9,0)" xlink:href="#bm"/><use transform="matrix(0.05,0,0,0.05,101.9,0)" xlink:href="#bv"/><use transform="matrix(0.05,0,0,0.05,106.9,0)" xlink:href="#be"/><use transform="matrix(0.05,0,0,0.05,116.9,0)" xlink:href="#bl"/><use transform="matrix(0.05,0,0,0.05,126.9,0)" xlink:href="#bQ"/><use transform="matrix(0.05,0,0,0.05,130.85,0)" xlink:href="#be"/><use transform="matrix(0.05,0,0,0.05,140.85,0)" xlink:href="#aW"/><use transform="matrix(0.05,0,0,0.05,149.85,0)" xlink:href="#bc"/><use transform="matrix(0.05,0,0,0.05,159.85,0)" xlink:href="#bk"/><use transform="matrix(0.05,0,0,0.05,169.85,0)" xlink:href="#aX"/><use transform="matrix(0.05,0,0,0.05,174.85,0)" xlink:href="#bs"/><use transform="matrix(0.05,0,0,0.05,185.85,0)" xlink:href="#bc"/><use transform="matrix(0.05,0,0,0.05,195.85,0)" xlink:href="#aZ"/><use transform="matrix(0.05,0,0,0.05,201.79999999999998,0)" xlink:href="#aX"/><use transform="matrix(0.05,0,0,0.05,206.79999999999995,0)" xlink:href="#bc"/><use transform="matrix(0.05,0,0,0.05,216.79999999999995,0)" xlink:href="#bm"/><use transform="matrix(0.05,0,0,0.05,225.79999999999995,0)" xlink:href="#bw"/></g><g id="aw"><use transform="matrix(0.05,0,0,0.05,0,0)" xlink:href="#aW"/><use transform="matrix(0.05,0,0,0.05,9,0)" xlink:href="#bj"/><use transform="matrix(0.05,0,0,0.05,19,0)" xlink:href="#aZ"/><use transform="matrix(0.05,0,0,0.05,24.95,0)" xlink:href="#aZ"/><use transform="matrix(0.05,0,0,0.05,30.899999999999995,0)" xlink:href="#bc"/><use transform="matrix(0.05,0,0,0.05,40.9,0)" xlink:href="#bk"/><use transform="matrix(0.05,0,0,0.05,50.9,0)" xlink:href="#aX"/><use transform="matrix(0.05,0,0,0.05,55.900000000000006,0)" xlink:href="#bs"/><use transform="matrix(0.05,0,0,0.05,66.9,0)" xlink:href="#bc"/><use transform="matrix(0.05,0,0,0.05,76.9,0)" xlink:href="#aZ"/><use transform="matrix(0.05,0,0,0.05,82.85000000000001,0)" xlink:href="#aX"/><use transform="matrix(0.05,0,0,0.05,87.85000000000001,0)" xlink:href="#bc"/><use transform="matrix(0.05,0,0,0.05,97.85000000000001,0)" xlink:href="#bm"/></g><g id="ax"><use transform="matrix(0.05,0,0,0.05,0,0)" xlink:href="#bd"/><use transform="matrix(0.05,0,0,0.05,12.950000000000001,0)" xlink:href="#aY"/><use transform="matrix(0.05,0,0,0.05,22.950000000000003,0)" xlink:href="#bk"/><use transform="matrix(0.05,0,0,0.05,32.95,0)" xlink:href="#aX"/><use transform="matrix(0.05,0,0,0.05,37.95,0)" xlink:href="#bn"/><use transform="matrix(0.05,0,0,0.05,41.900000000000006,0)" xlink:href="#bk"/><use transform="matrix(0.05,0,0,0.05,51.900000000000006,0)" xlink:href="#bj"/><use transform="matrix(0.05,0,0,0.05,61.900000000000006,0)" xlink:href="#bc"/></g><g id="ay"><use transform="matrix(0.05,0,0,0.05,0,0)" xlink:href="#bp"/><use transform="matrix(0.05,0,0,0.05,3.95,0)" xlink:href="#aY"/><use transform="matrix(0.05,0,0,0.05,13.949999999999998,0)" xlink:href="#aY"/><use transform="matrix(0.05,0,0,0.05,23.95,0)" xlink:href="#bz"/></g><g id="az"><use transform="matrix(0.05,0,0,0.05,0,0)" xlink:href="#bB"/><use transform="matrix(0.05,0,0,0.05,12,0)" xlink:href="#aZ"/><use transform="matrix(0.05,0,0,0.05,17.95,0)" xlink:href="#bn"/><use transform="matrix(0.05,0,0,0.05,21.9,0)" xlink:href="#bk"/><use transform="matrix(0.05,0,0,0.05,31.899999999999995,0)" xlink:href="#aX"/></g><g id="aA"><use transform="matrix(0.05,0,0,0.05,0,0)" xlink:href="#bt"/><use transform="matrix(0.05,0,0,0.05,14.950000000000001,0)" xlink:href="#bf"/><use transform="matrix(0.05,0,0,0.05,26.950000000000003,0)" xlink:href="#bu"/></g><g id="aB"><use transform="matrix(0.05,0,0,0.05,0,0)" xlink:href="#bK"/><use transform="matrix(0.05,0,0,0.05,9,0)" xlink:href="#bc"/><use transform="matrix(0.05,0,0,0.05,19,0)" xlink:href="#aZ"/><use transform="matrix(0.05,0,0,0.05,24.95,0)" xlink:href="#aX"/><use transform="matrix(0.05,0,0,0.05,29.950000000000003,0)" xlink:href="#bc"/><use transform="matrix(0.05,0,0,0.05,39.95,0)" xlink:href="#bm"/></g><path d="M18-150v-26h174v26H18zm0 90v-26h174v26H18" id="bV"/><use transform="matrix(0.05,0,0,0.05,0,0)" xlink:href="#bV" id="aC"/><use transform="matrix(0.05,0,0,0.05,0,0)" xlink:href="#bI" id="aD"/><path d="M140-251c81 0 123 46 123 126C263-46 219 4 140 4 59 4 17-45 17-125s42-126 123-126zm0 227c63 0 89-41 89-101s-29-99-89-99c-61 0-89 39-89 99S79-25 140-24" id="bW"/><g id="aE"><use transform="matrix(0.05,0,0,0.05,0,0)" xlink:href="#bk"/><use transform="matrix(0.05,0,0,0.05,10,0)" xlink:href="#bj"/><use transform="matrix(0.05,0,0,0.05,20,0)" xlink:href="#bh"/><use transform="matrix(0.05,0,0,0.05,34.95,0)" xlink:href="#bi"/><use transform="matrix(0.05,0,0,0.05,44.95,0)" xlink:href="#bc"/><use transform="matrix(0.05,0,0,0.05,54.95,0)" xlink:href="#aZ"/><use transform="matrix(0.05,0,0,0.05,60.900000000000006,0)" xlink:href="#bW"/><use transform="matrix(0.05,0,0,0.05,74.9,0)" xlink:href="#bx"/><use transform="matrix(0.05,0,0,0.05,79.9,0)" xlink:href="#bs"/><use transform="matrix(0.05,0,0,0.05,90.9,0)" xlink:href="#bc"/><use transform="matrix(0.05,0,0,0.05,100.9,0)" xlink:href="#aZ"/><use transform="matrix(0.05,0,0,0.05,106.85000000000001,0)" xlink:href="#aX"/><use transform="matrix(0.05,0,0,0.05,111.85000000000001,0)" xlink:href="#bn"/><use transform="matrix(0.05,0,0,0.05,115.80000000000001,0)" xlink:href="#aW"/><use transform="matrix(0.05,0,0,0.05,124.80000000000001,0)" xlink:href="#bc"/><use transform="matrix(0.05,0,0,0.05,134.8,0)" xlink:href="#bb"/></g><use transform="matrix(0.05,0,0,0.05,0,0)" xlink:href="#bH" id="aF"/><use transform="matrix(0.05,0,0,0.05,0,0)" xlink:href="#bI" id="aG"/><g id="aH"><use transform="matrix(0.05,0,0,0.05,0,0)" xlink:href="#bB"/><use transform="matrix(0.05,0,0,0.05,12,0)" xlink:href="#aZ"/><use transform="matrix(0.05,0,0,0.05,17.95,0)" xlink:href="#bn"/><use transform="matrix(0.05,0,0,0.05,21.9,0)" xlink:href="#bk"/><use transform="matrix(0.05,0,0,0.05,31.899999999999995,0)" xlink:href="#aX"/></g><g id="aI"><use transform="matrix(0.05,0,0,0.05,0,0)" xlink:href="#bz"/><use transform="matrix(0.05,0,0,0.05,10,0)" xlink:href="#be"/><use transform="matrix(0.05,0,0,0.05,20,0)" xlink:href="#aZ"/><use transform="matrix(0.05,0,0,0.05,25.950000000000003,0)" xlink:href="#bc"/><use transform="matrix(0.05,0,0,0.05,35.95,0)" xlink:href="#bk"/><use transform="matrix(0.05,0,0,0.05,45.95,0)" xlink:href="#aX"/><use transform="matrix(0.05,0,0,0.05,50.95,0)" xlink:href="#bs"/><use transform="matrix(0.05,0,0,0.05,61.95,0)" xlink:href="#bc"/><use transform="matrix(0.05,0,0,0.05,71.95,0)" xlink:href="#aZ"/><use transform="matrix(0.05,0,0,0.05,77.9,0)" xlink:href="#aX"/><use transform="matrix(0.05,0,0,0.05,82.9,0)" xlink:href="#bc"/><use transform="matrix(0.05,0,0,0.05,92.9,0)" xlink:href="#bm"/><use transform="matrix(0.05,0,0,0.05,101.9,0)" xlink:href="#bv"/><use transform="matrix(0.05,0,0,0.05,106.9,0)" xlink:href="#bK"/><use transform="matrix(0.05,0,0,0.05,115.9,0)" xlink:href="#bc"/><use transform="matrix(0.05,0,0,0.05,125.9,0)" xlink:href="#aZ"/><use transform="matrix(0.05,0,0,0.05,131.85,0)" xlink:href="#aX"/><use transform="matrix(0.05,0,0,0.05,136.85,0)" xlink:href="#bc"/><use transform="matrix(0.05,0,0,0.05,146.85,0)" xlink:href="#bm"/><use transform="matrix(0.05,0,0,0.05,155.85,0)" xlink:href="#bw"/><use transform="matrix(0.05,0,0,0.05,160.85,0)" xlink:href="#bL"/></g><g id="aJ"><use transform="matrix(0.05,0,0,0.05,0,0)" xlink:href="#bK"/><use transform="matrix(0.05,0,0,0.05,9,0)" xlink:href="#bc"/><use transform="matrix(0.05,0,0,0.05,19,0)" xlink:href="#aZ"/><use transform="matrix(0.05,0,0,0.05,24.95,0)" xlink:href="#aX"/><use transform="matrix(0.05,0,0,0.05,29.950000000000003,0)" xlink:href="#bc"/><use transform="matrix(0.05,0,0,0.05,39.95,0)" xlink:href="#bm"/><use transform="matrix(0.05,0,0,0.05,48.95,0)" xlink:href="#bL"/></g><g id="aK"><use transform="matrix(0.05,0,0,0.05,0,0)" xlink:href="#bh"/><use transform="matrix(0.05,0,0,0.05,14.950000000000001,0)" xlink:href="#bn"/><use transform="matrix(0.05,0,0,0.05,18.900000000000002,0)" xlink:href="#bk"/><use transform="matrix(0.05,0,0,0.05,28.900000000000002,0)" xlink:href="#bn"/><use transform="matrix(0.05,0,0,0.05,32.85,0)" xlink:href="#bh"/><use transform="matrix(0.05,0,0,0.05,47.800000000000004,0)" xlink:href="#bj"/><use transform="matrix(0.05,0,0,0.05,57.800000000000004,0)" xlink:href="#bh"/><use transform="matrix(0.05,0,0,0.05,72.75,0)" xlink:href="#bE"/><use transform="matrix(0.05,0,0,0.05,89.35000000000001,0)" xlink:href="#bc"/><use transform="matrix(0.05,0,0,0.05,99.35000000000001,0)" xlink:href="#bn"/><use transform="matrix(0.05,0,0,0.05,103.30000000000001,0)" xlink:href="#bF"/><use transform="matrix(0.05,0,0,0.05,113.30000000000001,0)" xlink:href="#bG"/><use transform="matrix(0.05,0,0,0.05,123.30000000000001,0)" xlink:href="#aX"/><use transform="matrix(0.05,0,0,0.05,128.3,0)" xlink:href="#bv"/><use transform="matrix(0.05,0,0,0.05,133.3,0)" xlink:href="#bK"/><use transform="matrix(0.05,0,0,0.05,142.3,0)" xlink:href="#bc"/><use transform="matrix(0.05,0,0,0.05,152.3,0)" xlink:href="#aZ"/><use transform="matrix(0.05,0,0,0.05,158.25,0)" xlink:href="#aX"/><use transform="matrix(0.05,0,0,0.05,163.25,0)" xlink:href="#bc"/><use transform="matrix(0.05,0,0,0.05,173.25,0)" xlink:href="#bm"/><use transform="matrix(0.05,0,0,0.05,182.25,0)" xlink:href="#bw"/></g><g id="aL"><use transform="matrix(0.05,0,0,0.05,0,0)" xlink:href="#bq"/><use transform="matrix(0.05,0,0,0.05,12,0)" xlink:href="#bk"/><use transform="matrix(0.05,0,0,0.05,22,0)" xlink:href="#bl"/></g><path d="M137-103V0h-34v-103L8-248h37l75 118 75-118h37" id="bX"/><g id="aM"><use transform="matrix(0.05,0,0,0.05,0,0)" xlink:href="#bX"/><use transform="matrix(0.05,0,0,0.05,10.35,0)" xlink:href="#bc"/><use transform="matrix(0.05,0,0,0.05,20.35,0)" xlink:href="#bb"/></g><path d="M190 0L58-211 59 0H30v-248h39L202-35l-2-213h31V0h-41" id="bY"/><g id="aN"><use transform="matrix(0.05,0,0,0.05,0,0)" xlink:href="#bY"/><use transform="matrix(0.05,0,0,0.05,12.950000000000001,0)" xlink:href="#aY"/></g></defs></g></svg>